<svg width="673" height="543" viewBox="0 0 673 543" fill="none" xmlns="http://www.w3.org/2000/svg">
<path d="M647.676 446.152C647.744 472.953 637.549 489.446 616.25 504.731C608.723 510.133 600.075 513.735 591.136 516.172C558.024 525.201 534.036 529.106 499.439 533.547C490.368 534.711 481.164 534.649 472.096 533.461C424.66 527.242 394.4 523.96 340.963 519.799C297.198 519.562 272.813 521.507 229.578 528.462C162.209 541.664 180.539 546.591 145.975 540.259C128.468 537.051 112.624 527.69 101.369 513.903C96.5246 507.968 92.6238 501.322 89.8042 494.199L79.1656 467.322C73.4994 453.008 64.3921 440.145 52.8185 429.993C21.5231 402.541 11.0971 357.768 27.4958 319.504C32.6265 307.533 35.2721 294.644 35.2721 281.619V266.346C35.2721 249.894 39.0658 233.663 46.3585 218.916L107.977 94.3088C115.108 79.889 125.398 67.2626 138.083 57.3688L176.286 27.5698C198.898 9.93256 227.644 2.11 256.075 5.85675L291.459 10.5197C328.931 20.5475 366.403 50.381 398.884 67.3878C409.435 72.9121 421.345 74.9395 433.23 75.7015C502.73 80.157 523.488 97.8204 549.502 126.856C565.116 140.517 571.448 183.847 568.917 256.059C568.47 268.818 570.026 281.607 573.854 293.786L579.275 311.034C580.876 316.128 582.854 321.135 585.262 325.902C610.53 375.922 623.01 381.778 640.167 416.595C644.708 425.813 647.65 435.877 647.676 446.152Z" fill="#292930"/>
<path d="M280.187 456.68H567.314C606.299 489.477 541.943 521.036 404.567 521.036C289.168 511.502 239.346 485.764 280.187 456.68Z" fill="#565B62"/>
<circle cx="339.106" cy="263.613" r="29.7028" fill="#917070"/>
<circle cx="339.108" cy="258.662" r="29.7028" fill="#8B605D"/>
<path d="M349.008 248.761L329.206 268.563" stroke="white" stroke-width="5" stroke-linecap="round" stroke-linejoin="round"/>
<path d="M329.206 248.761L349.008 268.563" stroke="white" stroke-width="5" stroke-linecap="round" stroke-linejoin="round"/>
<circle cx="422.455" cy="366.009" r="17.755" fill="#917070"/>
<circle cx="422.455" cy="363.05" r="17.755" fill="#8B605D"/>
<path d="M428.375 357.132L416.538 368.969" stroke="white" stroke-width="3" stroke-linecap="round" stroke-linejoin="round"/>
<path d="M416.538 357.132L428.375 368.969" stroke="white" stroke-width="3" stroke-linecap="round" stroke-linejoin="round"/>
<circle cx="326.731" cy="373.967" r="23.5147" fill="#917070"/>
<circle cx="326.731" cy="370.048" r="23.5147" fill="#8B605D"/>
<path d="M334.569 362.21L318.892 377.887" stroke="white" stroke-width="3" stroke-linecap="round" stroke-linejoin="round"/>
<path d="M318.892 362.21L334.569 377.887" stroke="white" stroke-width="3" stroke-linecap="round" stroke-linejoin="round"/>
<circle cx="503.709" cy="401.812" r="12.3762" fill="#917070"/>
<circle cx="503.71" cy="399.75" r="12.3762" fill="#8B605D"/>
<path d="M507.834 395.625L499.583 403.875" stroke="white" stroke-width="2" stroke-linecap="round" stroke-linejoin="round"/>
<path d="M499.583 395.625L507.834 403.875" stroke="white" stroke-width="2" stroke-linecap="round" stroke-linejoin="round"/>
<circle cx="449.254" cy="237.622" r="14.8514" fill="#917070"/>
<circle cx="449.254" cy="235.147" r="14.8514" fill="#8B605D"/>
<path d="M454.204 230.196L444.303 240.097" stroke="white" stroke-width="2" stroke-linecap="round" stroke-linejoin="round"/>
<path d="M444.303 230.196L454.204 240.097" stroke="white" stroke-width="2" stroke-linecap="round" stroke-linejoin="round"/>
<circle cx="404.082" cy="428.318" r="11.7574" fill="#917070"/>
<circle cx="404.082" cy="426.359" r="11.7574" fill="#8B605D"/>
<path d="M408.001 422.439L400.162 430.278" stroke="white" stroke-width="2" stroke-linecap="round" stroke-linejoin="round"/>
<path d="M400.162 422.439L408.001 430.278" stroke="white" stroke-width="2" stroke-linecap="round" stroke-linejoin="round"/>
<circle cx="394.182" cy="310.539" r="10.5197" fill="#917070"/>
<circle cx="394.182" cy="308.786" r="10.5197" fill="#8B605D"/>
<path d="M397.687 305.279L390.674 312.292" stroke="white" stroke-width="2" stroke-linecap="round" stroke-linejoin="round"/>
<path d="M390.674 305.279L397.687 312.292" stroke="white" stroke-width="2" stroke-linecap="round" stroke-linejoin="round"/>
<circle cx="494.428" cy="311.777" r="32.7968" fill="#917070"/>
<circle cx="494.428" cy="306.311" r="32.7968" fill="#8B605D"/>
<path d="M505.359 295.379L483.495 317.244" stroke="white" stroke-width="5" stroke-linecap="round" stroke-linejoin="round"/>
<path d="M483.495 295.379L505.359 317.244" stroke="white" stroke-width="5" stroke-linecap="round" stroke-linejoin="round"/>
<path d="M209.156 243.811L283.413 457.918C336.012 514.848 523.511 499.997 571.778 458.537L672.025 243.811H209.156Z" fill="url(#paint0_linear)"/>
<rect x="262.875" y="93.3208" width="148.752" height="89.346" rx="8.5" fill="#878B8F" stroke="#65686A"/>
<rect x="221.533" y="28.4658" width="155.94" height="121.286" rx="16" fill="#565B62"/>
<rect x="224.009" y="28.4648" width="152.227" height="118.811" rx="16" fill="#878B8F"/>
<rect x="275.989" y="48.2666" width="75.4946" height="4.95046" rx="1" fill="#4B4C4C"/>
<rect x="241.336" y="48.2666" width="27.2276" height="4.95046" rx="1" fill="#4B4C4C"/>
<rect x="241.334" y="43.3159" width="40.8413" height="3.71285" rx="1" fill="#4B4C4C"/>
<rect x="253.712" y="54.4546" width="35.8909" height="3.71285" rx="1" fill="#4B4C4C"/>
<rect x="264.85" y="59.4048" width="39.6037" height="4.95046" rx="1" fill="#4B4C4C"/>
<rect x="306.929" y="59.4048" width="33.4156" height="4.95046" rx="1" fill="#4B4C4C"/>
<rect x="298.266" y="65.5928" width="63.1184" height="3.71285" rx="1" fill="#4B4C4C"/>
<rect x="264.85" y="65.5928" width="30.9404" height="3.71285" rx="1" fill="#4B4C4C"/>
<rect x="241.336" y="77.9692" width="25.9899" height="4.95046" rx="1" fill="#4B4C4C"/>
<rect x="253.712" y="84.1572" width="34.6533" height="3.71285" rx="1" fill="#4B4C4C"/>
<rect x="264.85" y="89.1074" width="39.6037" height="4.95046" rx="1" fill="#4B4C4C"/>
<rect x="306.929" y="89.1074" width="33.4156" height="4.95046" rx="1" fill="#4B4C4C"/>
<rect x="264.85" y="95.2954" width="30.9404" height="3.71285" rx="1" fill="#4B4C4C"/>
<rect x="241.336" y="102.722" width="40.8413" height="3.71285" rx="1" fill="#4B4C4C"/>
<rect x="241.336" y="108.91" width="27.2276" height="3.71285" rx="1" fill="#4B4C4C"/>
<rect x="254.949" y="113.86" width="33.4156" height="3.71285" rx="1" fill="#4B4C4C"/>
<rect x="264.85" y="120.048" width="39.6037" height="3.71285" rx="1" fill="#4B4C4C"/>
<rect x="264.85" y="124.999" width="30.9404" height="3.71285" rx="1" fill="#4B4C4C"/>
<rect x="298.266" y="124.999" width="63.1184" height="3.71285" rx="1" fill="#4B4C4C"/>
<rect x="306.929" y="120.048" width="33.4156" height="3.71285" rx="1" fill="#4B4C4C"/>
<rect x="275.989" y="107.672" width="75.4946" height="4.95046" rx="1" fill="#4B4C4C"/>
<rect x="298.266" y="95.2954" width="63.1184" height="3.71285" rx="1" fill="#4B4C4C"/>
<rect x="242.573" y="71.7808" width="39.6037" height="4.95046" rx="1" fill="#4B4C4C"/>
<rect x="275.989" y="77.9692" width="75.4946" height="4.95046" rx="1" fill="#4B4C4C"/>
<rect x="37.4697" y="263.825" width="116.405" height="69.8312" rx="8.5" fill="#878B8F" stroke="#65686A"/>
<rect x="4.9502" y="212.872" width="122.257" height="95.0885" rx="16" fill="#565B62"/>
<rect x="6.8916" y="212.87" width="119.346" height="93.1479" rx="16" fill="#878B8F"/>
<rect x="47.6433" y="228.396" width="59.1878" height="3.88116" rx="1" fill="#4B4C4D"/>
<rect x="20.4744" y="228.396" width="21.3464" height="3.88116" rx="1" fill="#4B4C4D"/>
<rect x="20.4753" y="224.514" width="32.0196" height="2.91087" rx="1" fill="#4B4C4D"/>
<rect x="30.1777" y="233.247" width="28.1384" height="2.91087" rx="1" fill="#4B4C4D"/>
<rect x="38.9111" y="237.128" width="31.0493" height="3.88116" rx="1" fill="#4B4C4D"/>
<rect x="71.8997" y="237.128" width="26.1979" height="3.88116" rx="1" fill="#4B4C4D"/>
<rect x="65.1086" y="241.979" width="49.4848" height="2.91087" rx="1" fill="#4B4C4D"/>
<rect x="38.9111" y="241.979" width="24.2573" height="2.91087" rx="1" fill="#4B4C4D"/>
<rect x="20.4744" y="251.682" width="20.3761" height="3.88116" rx="1" fill="#4B4C4D"/>
<rect x="30.1777" y="256.534" width="27.1681" height="2.91087" rx="1" fill="#4B4C4D"/>
<rect x="38.9111" y="260.415" width="31.0493" height="3.88116" rx="1" fill="#4B4C4D"/>
<rect x="71.8997" y="260.415" width="26.1979" height="3.88116" rx="1" fill="#4B4C4D"/>
<rect x="38.9111" y="265.267" width="24.2573" height="2.91087" rx="1" fill="#4B4C4D"/>
<rect x="20.4744" y="271.088" width="32.0196" height="2.91087" rx="1" fill="#4B4C4D"/>
<rect x="20.4744" y="275.939" width="21.3464" height="2.91087" rx="1" fill="#4B4C4D"/>
<rect x="31.1479" y="279.821" width="26.1979" height="2.91087" rx="1" fill="#4B4C4D"/>
<rect x="38.9111" y="284.672" width="31.0493" height="2.91087" rx="1" fill="#4B4C4D"/>
<rect x="38.9111" y="288.554" width="24.2573" height="2.91087" rx="1" fill="#4B4C4D"/>
<rect x="65.1086" y="288.554" width="49.4848" height="2.91087" rx="1" fill="#4B4C4D"/>
<rect x="71.8997" y="284.672" width="26.1979" height="2.91087" rx="1" fill="#4B4C4D"/>
<rect x="47.6433" y="274.969" width="59.1878" height="3.88116" rx="1" fill="#4B4C4D"/>
<rect x="65.1086" y="265.267" width="49.4848" height="2.91087" rx="1" fill="#4B4C4D"/>
<rect x="21.4456" y="246.831" width="31.0493" height="3.88116" rx="1" fill="#4B4C4D"/>
<rect x="47.6433" y="251.682" width="59.1878" height="3.88116" rx="1" fill="#4B4C4D"/>
<defs>
<linearGradient id="paint0_linear" x1="440.59" y1="243.811" x2="440.59" y2="495.04" gradientUnits="userSpaceOnUse">
<stop stop-color="#6B7179" stop-opacity="0"/>
<stop offset="1" stop-color="#6B7179"/>
</linearGradient>
</defs>
</svg>
