<svg width="547" height="379" viewBox="0 0 547 379" fill="none" xmlns="http://www.w3.org/2000/svg">
<path d="M213.18 281.599H215.424V282.409H209.607V281.599H212.203V273.012L209.729 274.493L209.302 273.806L212.355 271.911H213.18V281.599Z" fill="url(#paint0_linear)"/>
<path d="M212.264 289.223C213.353 289.223 214.177 289.686 214.737 290.614C215.307 291.53 215.592 292.865 215.592 294.617C215.592 296.37 215.307 297.709 214.737 298.636C214.177 299.564 213.353 300.026 212.264 300.026C211.185 300.026 210.36 299.564 209.791 298.636C209.22 297.709 208.935 296.37 208.935 294.617C208.935 292.875 209.22 291.54 209.791 290.614C210.36 289.686 211.185 289.223 212.264 289.223ZM210.019 294.617C210.019 295.86 210.132 296.833 210.355 297.536L213.745 290.767C213.389 290.288 212.895 290.048 212.264 290.048C211.561 290.048 211.011 290.425 210.615 291.179C210.218 291.922 210.019 293.069 210.019 294.617ZM212.264 299.187C212.977 299.187 213.531 298.814 213.928 298.071C214.325 297.317 214.524 296.166 214.524 294.617C214.524 293.303 214.396 292.284 214.142 291.561L210.752 298.391C211.119 298.921 211.623 299.187 212.264 299.187Z" fill="url(#paint1_linear)"/>
<path d="M213.18 316.528H215.424V317.338H209.607V316.528H212.203V307.94L209.729 309.422L209.302 308.735L212.355 306.84H213.18V316.528Z" fill="url(#paint2_linear)"/>
<path d="M212.264 324.151C213.353 324.151 214.177 324.615 214.737 325.543C215.307 326.459 215.592 327.793 215.592 329.546C215.592 331.298 215.307 332.637 214.737 333.565C214.177 334.491 213.353 334.955 212.264 334.955C211.185 334.955 210.36 334.491 209.791 333.565C209.22 332.637 208.935 331.298 208.935 329.546C208.935 327.804 209.22 326.469 209.791 325.543C210.36 324.615 211.185 324.151 212.264 324.151ZM210.019 329.546C210.019 330.789 210.132 331.761 210.355 332.464L213.745 325.695C213.389 325.216 212.895 324.976 212.264 324.976C211.561 324.976 211.011 325.354 210.615 326.108C210.218 326.851 210.019 327.997 210.019 329.546ZM212.264 334.115C212.977 334.115 213.531 333.743 213.928 333C214.325 332.245 214.524 331.094 214.524 329.546C214.524 328.232 214.396 327.213 214.142 326.49L210.752 333.32C211.119 333.85 211.623 334.115 212.264 334.115Z" fill="url(#paint3_linear)"/>
<path d="M212.264 341.616C213.353 341.616 214.177 342.079 214.737 343.006C215.307 343.924 215.592 345.258 215.592 347.01C215.592 348.762 215.307 350.102 214.737 351.029C214.177 351.956 213.353 352.42 212.264 352.42C211.185 352.42 210.36 351.956 209.791 351.029C209.22 350.102 208.935 348.762 208.935 347.01C208.935 345.268 209.22 343.934 209.791 343.006C210.36 342.079 211.185 341.616 212.264 341.616ZM210.019 347.01C210.019 348.253 210.132 349.226 210.355 349.929L213.745 343.159C213.389 342.681 212.895 342.441 212.264 342.441C211.561 342.441 211.011 342.818 210.615 343.572C210.218 344.316 210.019 345.462 210.019 347.01ZM212.264 351.579C212.977 351.579 213.531 351.208 213.928 350.464C214.325 349.71 214.524 348.558 214.524 347.01C214.524 345.696 214.396 344.677 214.142 343.954L210.752 350.785C211.119 351.315 211.623 351.579 212.264 351.579Z" fill="url(#paint4_linear)"/>
<path d="M213.18 368.921H215.424V369.731H209.607V368.921H212.203V360.333L209.729 361.816L209.302 361.127L212.355 359.232H213.18V368.921Z" fill="url(#paint5_linear)"/>
<path d="M199.003 299.063H201.247V299.873H195.43V299.063H198.025V290.476L195.552 291.958L195.124 291.27L198.178 289.375H199.003V299.063Z" fill="url(#paint6_linear)"/>
<path d="M198.087 306.688C199.176 306.688 200 307.151 200.56 308.078C201.13 308.995 201.415 310.329 201.415 312.082C201.415 313.834 201.13 315.174 200.56 316.1C200 317.028 199.176 317.491 198.087 317.491C197.008 317.491 196.183 317.028 195.614 316.1C195.043 315.174 194.758 313.834 194.758 312.082C194.758 310.34 195.043 309.005 195.614 308.078C196.183 307.151 197.008 306.688 198.087 306.688ZM195.842 312.082C195.842 313.324 195.954 314.297 196.178 315L199.567 308.231C199.211 307.752 198.718 307.513 198.087 307.513C197.384 307.513 196.834 307.89 196.437 308.643C196.04 309.387 195.842 310.533 195.842 312.082ZM198.087 316.65C198.799 316.65 199.354 316.279 199.751 315.535C200.148 314.782 200.346 313.63 200.346 312.082C200.346 310.767 200.219 309.748 199.964 309.026L196.575 315.856C196.941 316.386 197.446 316.65 198.087 316.65Z" fill="url(#paint7_linear)"/>
<path d="M199.003 333.992H201.247V334.802H195.43V333.992H198.025V325.404L195.552 326.887L195.124 326.199L198.178 324.304H199.003V333.992Z" fill="url(#paint8_linear)"/>
<path d="M199.003 351.457H201.247V352.267H195.43V351.457H198.025V342.868L195.552 344.351L195.124 343.664L198.178 341.769H199.003V351.457Z" fill="url(#paint9_linear)"/>
<path d="M227.357 281.599H229.602V282.409H223.785V281.599H226.38V273.012L223.907 274.493L223.479 273.806L226.533 271.911H227.357V281.599Z" fill="url(#paint10_linear)"/>
<path d="M226.441 289.223C227.531 289.223 228.355 289.686 228.914 290.614C229.485 291.53 229.77 292.865 229.77 294.617C229.77 296.37 229.485 297.709 228.914 298.636C228.355 299.564 227.531 300.026 226.441 300.026C225.362 300.026 224.537 299.564 223.968 298.636C223.398 297.709 223.113 296.37 223.113 294.617C223.113 292.875 223.398 291.54 223.968 290.614C224.537 289.686 225.362 289.223 226.441 289.223ZM224.196 294.617C224.196 295.86 224.309 296.833 224.533 297.536L227.922 290.767C227.566 290.288 227.072 290.048 226.441 290.048C225.739 290.048 225.189 290.425 224.792 291.179C224.395 291.922 224.196 293.069 224.196 294.617ZM226.441 299.187C227.154 299.187 227.709 298.814 228.106 298.071C228.503 297.317 228.701 296.166 228.701 294.617C228.701 293.303 228.573 292.284 228.319 291.561L224.93 298.391C225.296 298.921 225.8 299.187 226.441 299.187Z" fill="url(#paint11_linear)"/>
<path d="M227.357 316.528H229.602V317.338H223.785V316.528H226.38V307.94L223.907 309.422L223.479 308.735L226.533 306.84H227.357V316.528Z" fill="url(#paint12_linear)"/>
<path d="M227.357 333.992H229.602V334.802H223.785V333.992H226.38V325.404L223.907 326.887L223.479 326.199L226.533 324.304H227.357V333.992Z" fill="url(#paint13_linear)"/>
<path d="M4.2446 76.4304H6.48851V77.2405H0.67186V76.4304H3.26708V67.8428L0.793933 69.3234L0.366211 68.6362L3.41991 66.7412H4.2446V76.4295V76.4304Z" fill="url(#paint14_linear)"/>
<path d="M4.2446 93.8943H6.48851V94.7044H0.67186V93.8943H3.26708V85.3067L0.793933 86.7882L0.366211 86.1001L3.41991 84.2051H4.2446V93.8933V93.8943Z" fill="url(#paint15_linear)"/>
<path d="M3.32859 101.519C4.41793 101.519 5.24169 101.982 5.80174 102.909C6.37204 103.826 6.65719 105.16 6.65719 106.913C6.65719 108.665 6.37204 110.005 5.80174 110.931C5.24263 111.859 4.41793 112.322 3.32859 112.322C2.2495 112.322 1.42481 111.859 0.855445 110.931C0.285148 110.005 0 108.665 0 106.913C0 105.171 0.285148 103.836 0.855445 102.909C1.42481 101.982 2.2495 101.519 3.32859 101.519ZM1.08375 106.913C1.08375 108.155 1.19557 109.128 1.41922 109.831L4.80931 103.062C4.45334 102.583 3.95946 102.344 3.32766 102.344C2.62597 102.344 2.07618 102.721 1.67921 103.474C1.28224 104.218 1.08375 105.364 1.08375 106.913ZM3.32859 111.482C4.04053 111.482 4.59592 111.11 4.99289 110.366C5.38986 109.613 5.58835 108.461 5.58835 106.913C5.58835 105.598 5.46068 104.579 5.20628 103.857L1.81712 110.687C2.18334 111.217 2.68748 111.482 3.32859 111.482Z" fill="url(#paint16_linear)"/>
<path d="M4.2446 128.823H6.48851V129.633H0.67186V128.823H3.26708V120.235L0.793933 121.718L0.366211 121.03L3.41991 119.135H4.2446V128.823Z" fill="url(#paint17_linear)"/>
<path d="M3.32859 136.446C4.41793 136.446 5.24169 136.909 5.80174 137.837C6.37204 138.754 6.65719 140.088 6.65719 141.84C6.65719 143.592 6.37204 144.932 5.80174 145.859C5.24263 146.786 4.41793 147.25 3.32859 147.25C2.2495 147.25 1.42481 146.786 0.855445 145.859C0.285148 144.932 0 143.592 0 141.84C0 140.098 0.285148 138.764 0.855445 137.837C1.42481 136.909 2.2495 136.446 3.32859 136.446ZM1.08375 141.84C1.08375 143.083 1.19557 144.056 1.41922 144.759L4.80931 137.989C4.45334 137.511 3.95946 137.271 3.32766 137.271C2.62597 137.271 2.07618 137.648 1.67921 138.402C1.28224 139.146 1.08375 140.292 1.08375 141.84ZM3.32859 146.409C4.04053 146.409 4.59592 146.038 4.99289 145.294C5.38986 144.54 5.58835 143.388 5.58835 141.84C5.58835 140.526 5.46068 139.507 5.20628 138.784L1.81712 145.615C2.18334 146.145 2.68748 146.409 3.32859 146.409Z" fill="url(#paint18_linear)"/>
<path d="M3.32859 153.91C4.41793 153.91 5.24169 154.374 5.80174 155.3C6.37204 156.218 6.65719 157.552 6.65719 159.305C6.65719 161.057 6.37204 162.396 5.80174 163.324C5.24263 164.25 4.41793 164.714 3.32859 164.714C2.2495 164.714 1.42481 164.25 0.855445 163.324C0.285148 162.396 0 161.057 0 159.305C0 157.562 0.285148 156.228 0.855445 155.3C1.42481 154.374 2.2495 153.91 3.32859 153.91ZM1.08375 159.305C1.08375 160.548 1.19557 161.52 1.41922 162.223L4.80931 155.453C4.45334 154.975 3.95946 154.735 3.32766 154.735C2.62597 154.735 2.07618 155.112 1.67921 155.867C1.28224 156.61 1.08375 157.756 1.08375 159.305ZM3.32859 163.873C4.04053 163.873 4.59592 163.502 4.99289 162.758C5.38986 162.004 5.58835 160.853 5.58835 159.305C5.58835 157.991 5.46068 156.972 5.20628 156.248L1.81712 163.079C2.18334 163.609 2.68748 163.873 3.32859 163.873Z" fill="url(#paint19_linear)"/>
<path d="M4.2446 181.217H6.48851V182.026H0.67186V181.217H3.26708V172.628L0.793933 174.111L0.366211 173.422L3.41991 171.528H4.2446V181.217Z" fill="url(#paint20_linear)"/>
<path d="M3.32859 188.839C4.41793 188.839 5.24169 189.303 5.80174 190.229C6.37204 191.146 6.65719 192.481 6.65719 194.233C6.65719 195.985 6.37204 197.325 5.80174 198.252C5.24263 199.179 4.41793 199.643 3.32859 199.643C2.2495 199.643 1.42481 199.179 0.855445 198.252C0.285148 197.325 0 195.985 0 194.233C0 192.491 0.285148 191.157 0.855445 190.229C1.42481 189.303 2.2495 188.839 3.32859 188.839ZM1.08375 194.233C1.08375 195.476 1.19557 196.449 1.41922 197.152L4.80931 190.382C4.45334 189.903 3.95946 189.664 3.32766 189.664C2.62597 189.664 2.07618 190.041 1.67921 190.794C1.28224 191.538 1.08375 192.685 1.08375 194.233ZM3.32859 198.802C4.04053 198.802 4.59592 198.43 4.99289 197.686C5.38986 196.933 5.58835 195.782 5.58835 194.233C5.58835 192.918 5.46068 191.9 5.20628 191.177L1.81712 198.008C2.18334 198.537 2.68748 198.802 3.32859 198.802Z" fill="url(#paint21_linear)"/>
<path d="M4.2446 216.144H6.48851V216.953H0.67186V216.144H3.26708V207.556L0.793933 209.038L0.366211 208.35L3.41991 206.455H4.2446V216.144Z" fill="url(#paint22_linear)"/>
<path d="M4.2446 233.608H6.48851V234.418H0.67186V233.608H3.26708V225.02L0.793933 226.502L0.366211 225.815L3.41991 223.92H4.2446V233.608Z" fill="url(#paint23_linear)"/>
<path d="M31.6831 49.125C32.7724 49.125 33.5962 49.5887 34.1562 50.5162C34.7265 51.4325 35.0117 52.7679 35.0117 54.5204C35.0117 56.2711 34.7265 57.612 34.1562 58.5385C33.5971 59.466 32.7724 59.9288 31.6831 59.9288C30.604 59.9288 29.7793 59.466 29.2099 58.5385C28.6396 57.612 28.3545 56.272 28.3545 54.5195C28.3545 52.7781 28.6396 51.4428 29.2099 50.5153C29.7793 49.5887 30.604 49.125 31.6831 49.125ZM29.4382 54.5195C29.4382 55.7626 29.5501 56.7357 29.7746 57.4388L33.1638 50.6689C32.8078 50.1903 32.314 49.951 31.6831 49.951C30.9805 49.951 30.4316 50.3272 30.0337 51.0815C29.6377 51.8255 29.4392 52.9718 29.4392 54.5195H29.4382ZM31.6831 59.0889C32.396 59.0889 32.9504 58.7164 33.3474 57.9733C33.7444 57.219 33.9428 56.0681 33.9428 54.5195C33.9428 53.2055 33.8152 52.1868 33.5608 51.4633L30.1716 58.2936C30.5378 58.8244 31.042 59.0889 31.6831 59.0889Z" fill="url(#paint24_linear)"/>
<path d="M32.5991 76.4304H34.8439V77.2406H29.0264V76.4304H31.6216V67.8429L29.1484 69.3244L28.7207 68.6372L31.7744 66.7422H32.5991V76.4304Z" fill="url(#paint25_linear)"/>
<path d="M31.6831 84.0537C32.7724 84.0537 33.5962 84.5175 34.1562 85.4449C34.7265 86.3612 35.0117 87.6956 35.0117 89.4491C35.0117 91.1998 34.7265 92.5407 34.1562 93.4672C33.5971 94.3947 32.7724 94.8575 31.6831 94.8575C30.604 94.8575 29.7793 94.3947 29.2099 93.4672C28.6396 92.5398 28.3545 91.2007 28.3545 89.4482C28.3545 87.7068 28.6396 86.3715 29.2099 85.444C29.7793 84.5174 30.604 84.0537 31.6831 84.0537ZM29.4382 89.4482C29.4382 90.6913 29.5501 91.6644 29.7746 92.3666L33.1638 85.5967C32.8078 85.119 32.314 84.8797 31.6831 84.8797C30.9805 84.8797 30.4316 85.2559 30.0337 86.0102C29.6377 86.7533 29.4392 87.9005 29.4392 89.4482H29.4382ZM31.6831 94.0176C32.396 94.0176 32.9504 93.6451 33.3474 92.902C33.7444 92.1477 33.9428 90.9968 33.9428 89.4482C33.9428 88.1342 33.8152 87.1155 33.5608 86.392L30.1716 93.2223C30.5378 93.7522 31.042 94.0176 31.6831 94.0176Z" fill="url(#paint26_linear)"/>
<path d="M31.6831 101.519C32.7724 101.519 33.5962 101.982 34.1562 102.909C34.7265 103.826 35.0117 105.16 35.0117 106.913C35.0117 108.665 34.7265 110.005 34.1562 110.931C33.5971 111.859 32.7724 112.322 31.6831 112.322C30.604 112.322 29.7793 111.859 29.2099 110.931C28.6396 110.005 28.3545 108.665 28.3545 106.913C28.3545 105.171 28.6396 103.836 29.2099 102.909C29.7793 101.982 30.604 101.519 31.6831 101.519ZM29.4382 106.913C29.4382 108.155 29.5501 109.128 29.7746 109.831L33.1638 103.062C32.8078 102.583 32.314 102.344 31.6831 102.344C30.9805 102.344 30.4316 102.721 30.0337 103.474C29.6377 104.218 29.4392 105.364 29.4392 106.913H29.4382ZM31.6831 111.482C32.396 111.482 32.9504 111.11 33.3474 110.366C33.7444 109.613 33.9428 108.461 33.9428 106.913C33.9428 105.598 33.8152 104.579 33.5608 103.857L30.1716 110.687C30.5378 111.217 31.042 111.482 31.6831 111.482Z" fill="url(#paint27_linear)"/>
<path d="M32.5991 128.823H34.8439V129.633H29.0264V128.823H31.6216V120.235L29.1484 121.718L28.7207 121.03L31.7744 119.135H32.5991V128.823Z" fill="url(#paint28_linear)"/>
<path d="M31.6831 136.446C32.7724 136.446 33.5962 136.909 34.1562 137.837C34.7265 138.754 35.0117 140.088 35.0117 141.84C35.0117 143.592 34.7265 144.932 34.1562 145.859C33.5971 146.786 32.7724 147.25 31.6831 147.25C30.604 147.25 29.7793 146.786 29.2099 145.859C28.6396 144.932 28.3545 143.592 28.3545 141.84C28.3545 140.098 28.6396 138.764 29.2099 137.837C29.7793 136.909 30.604 136.446 31.6831 136.446ZM29.4382 141.84C29.4382 143.083 29.5501 144.056 29.7746 144.759L33.1638 137.989C32.8078 137.511 32.314 137.271 31.6831 137.271C30.9805 137.271 30.4316 137.648 30.0337 138.402C29.6377 139.146 29.4392 140.292 29.4392 141.84H29.4382ZM31.6831 146.409C32.396 146.409 32.9504 146.038 33.3474 145.294C33.7444 144.54 33.9428 143.388 33.9428 141.84C33.9428 140.526 33.8152 139.507 33.5608 138.784L30.1716 145.615C30.5378 146.145 31.042 146.409 31.6831 146.409Z" fill="url(#paint29_linear)"/>
<path d="M32.5991 163.752H34.8439V164.562H29.0264V163.752H31.6216V155.164L29.1484 156.646L28.7207 155.958L31.7744 154.063H32.5991V163.752Z" fill="url(#paint30_linear)"/>
<path d="M31.6831 171.375C32.7724 171.375 33.5962 171.838 34.1562 172.765C34.7265 173.682 35.0117 175.017 35.0117 176.769C35.0117 178.521 34.7265 179.861 34.1562 180.788C33.5971 181.715 32.7724 182.178 31.6831 182.178C30.604 182.178 29.7793 181.715 29.2099 180.788C28.6396 179.861 28.3545 178.521 28.3545 176.769C28.3545 175.027 28.6396 173.692 29.2099 172.765C29.7793 171.838 30.604 171.375 31.6831 171.375ZM29.4382 176.769C29.4382 178.012 29.5501 178.985 29.7746 179.688L33.1638 172.918C32.8078 172.439 32.314 172.2 31.6831 172.2C30.9805 172.2 30.4316 172.576 30.0337 173.331C29.6377 174.075 29.4392 175.22 29.4392 176.769H29.4382ZM31.6831 181.338C32.396 181.338 32.9504 180.966 33.3474 180.222C33.7444 179.468 33.9428 178.317 33.9428 176.769C33.9428 175.455 33.8152 174.436 33.5608 173.712L30.1716 180.544C30.5378 181.073 31.042 181.338 31.6831 181.338Z" fill="url(#paint31_linear)"/>
<path d="M31.6831 188.839C32.7724 188.839 33.5962 189.303 34.1562 190.229C34.7265 191.146 35.0117 192.481 35.0117 194.233C35.0117 195.985 34.7265 197.325 34.1562 198.252C33.5971 199.179 32.7724 199.643 31.6831 199.643C30.604 199.643 29.7793 199.179 29.2099 198.252C28.6396 197.325 28.3545 195.985 28.3545 194.233C28.3545 192.491 28.6396 191.157 29.2099 190.229C29.7793 189.303 30.604 188.839 31.6831 188.839ZM29.4382 194.233C29.4382 195.476 29.5501 196.449 29.7746 197.152L33.1638 190.382C32.8078 189.903 32.314 189.664 31.6831 189.664C30.9805 189.664 30.4316 190.041 30.0337 190.794C29.6377 191.538 29.4392 192.685 29.4392 194.233H29.4382ZM31.6831 198.802C32.396 198.802 32.9504 198.43 33.3474 197.686C33.7444 196.933 33.9428 195.782 33.9428 194.233C33.9428 192.918 33.8152 191.9 33.5608 191.177L30.1716 198.008C30.5378 198.537 31.042 198.802 31.6831 198.802Z" fill="url(#paint32_linear)"/>
<path d="M32.5991 216.144H34.8439V216.953H29.0264V216.144H31.6216V207.556L29.1484 209.038L28.7207 208.35L31.7744 206.455H32.5991V216.144Z" fill="url(#paint33_linear)"/>
<path d="M31.6831 223.768C32.7724 223.768 33.5962 224.231 34.1562 225.158C34.7265 226.075 35.0117 227.41 35.0117 229.162C35.0117 230.914 34.7265 232.254 34.1562 233.18C33.5971 234.108 32.7724 234.571 31.6831 234.571C30.604 234.571 29.7793 234.108 29.2099 233.18C28.6396 232.254 28.3545 230.914 28.3545 229.162C28.3545 227.42 28.6396 226.085 29.2099 225.158C29.7793 224.231 30.604 223.768 31.6831 223.768ZM29.4382 229.162C29.4382 230.404 29.5501 231.377 29.7746 232.08L33.1638 225.311C32.8078 224.832 32.314 224.593 31.6831 224.593C30.9805 224.593 30.4316 224.97 30.0337 225.723C29.6377 226.467 29.4392 227.613 29.4392 229.162H29.4382ZM31.6831 233.731C32.396 233.731 32.9504 233.359 33.3474 232.615C33.7444 231.862 33.9428 230.71 33.9428 229.162C33.9428 227.847 33.8152 226.828 33.5608 226.106L30.1716 232.936C30.5378 233.466 31.042 233.731 31.6831 233.731Z" fill="url(#paint34_linear)"/>
<path d="M32.5991 251.072H34.8439V251.882H29.0264V251.072H31.6216V242.484L29.1484 243.967L28.7207 243.279L31.7744 241.384H32.5991V251.072Z" fill="url(#paint35_linear)"/>
<path d="M32.5991 268.537H34.8439V269.347H29.0264V268.537H31.6216V259.948L29.1484 261.431L28.7207 260.744L31.7744 258.849H32.5991V268.537Z" fill="url(#paint36_linear)"/>
<path d="M18.4218 41.5017H20.6667V42.3119H14.8491V41.5017H17.4443V32.9142L14.9712 34.3957L14.5435 33.7085L17.5972 31.8135H18.4218V41.5017Z" fill="url(#paint37_linear)"/>
<path d="M17.5058 49.125C18.5952 49.125 19.4189 49.5887 19.979 50.5162C20.5493 51.4325 20.8344 52.7679 20.8344 54.5204C20.8344 56.2711 20.5493 57.612 19.979 58.5385C19.4199 59.466 18.5952 59.9288 17.5058 59.9288C16.4267 59.9288 15.6021 59.466 15.0327 58.5385C14.4624 57.612 14.1772 56.272 14.1772 54.5195C14.1772 52.7781 14.4624 51.4428 15.0327 50.5153C15.6021 49.5887 16.4267 49.125 17.5058 49.125ZM15.261 54.5195C15.261 55.7626 15.3728 56.7357 15.5965 57.4388L18.9866 50.6689C18.6306 50.1903 18.1367 49.951 17.5049 49.951C16.8032 49.951 16.2534 50.3272 15.8565 51.0815C15.4595 51.8255 15.261 52.9718 15.261 54.5195ZM17.5058 59.0889C18.2178 59.0889 18.7732 58.7164 19.1701 57.9733C19.5671 57.219 19.7656 56.0681 19.7656 54.5195C19.7656 53.2055 19.6379 52.1868 19.3835 51.4633L15.9944 58.2936C16.3606 58.8244 16.8647 59.0889 17.5058 59.0889Z" fill="url(#paint38_linear)"/>
<path d="M18.4218 76.4304H20.6667V77.2406H14.8491V76.4304H17.4443V67.8429L14.9712 69.3244L14.5435 68.6372L17.5972 66.7422H18.4218V76.4304Z" fill="url(#paint39_linear)"/>
<path d="M18.4218 93.8943H20.6667V94.7044H14.8491V93.8943H17.4443V85.3067L14.9712 86.7882L14.5435 86.1001L17.5972 84.2051H18.4218V93.8933V93.8943Z" fill="url(#paint40_linear)"/>
<path d="M17.5058 101.519C18.5952 101.519 19.4189 101.982 19.979 102.909C20.5493 103.826 20.8344 105.16 20.8344 106.913C20.8344 108.665 20.5493 110.005 19.979 110.931C19.4199 111.859 18.5952 112.322 17.5058 112.322C16.4267 112.322 15.6021 111.859 15.0327 110.931C14.4624 110.005 14.1772 108.665 14.1772 106.913C14.1772 105.171 14.4624 103.836 15.0327 102.909C15.6021 101.982 16.4267 101.519 17.5058 101.519ZM15.261 106.913C15.261 108.155 15.3728 109.128 15.5965 109.831L18.9866 103.062C18.6306 102.583 18.1367 102.344 17.5049 102.344C16.8032 102.344 16.2534 102.721 15.8565 103.474C15.4595 104.218 15.261 105.364 15.261 106.913ZM17.5058 111.482C18.2178 111.482 18.7732 111.11 19.1701 110.366C19.5671 109.613 19.7656 108.461 19.7656 106.913C19.7656 105.598 19.6379 104.579 19.3835 103.857L15.9944 110.687C16.3606 111.217 16.8647 111.482 17.5058 111.482Z" fill="url(#paint41_linear)"/>
<path d="M18.4218 128.823H20.6667V129.633H14.8491V128.823H17.4443V120.235L14.9712 121.718L14.5435 121.03L17.5972 119.135H18.4218V128.823Z" fill="url(#paint42_linear)"/>
<path d="M18.4218 146.288H20.6667V147.097H14.8491V146.288H17.4443V137.699L14.9712 139.182L14.5435 138.495L17.5972 136.6H18.4218V146.288Z" fill="url(#paint43_linear)"/>
<path d="M17.5058 153.91C18.5952 153.91 19.4189 154.374 19.979 155.3C20.5493 156.218 20.8344 157.552 20.8344 159.305C20.8344 161.057 20.5493 162.396 19.979 163.324C19.4199 164.25 18.5952 164.714 17.5058 164.714C16.4267 164.714 15.6021 164.25 15.0327 163.324C14.4624 162.396 14.1772 161.057 14.1772 159.305C14.1772 157.562 14.4624 156.228 15.0327 155.3C15.6021 154.374 16.4267 153.91 17.5058 153.91ZM15.261 159.305C15.261 160.548 15.3728 161.52 15.5965 162.223L18.9866 155.453C18.6306 154.975 18.1367 154.735 17.5049 154.735C16.8032 154.735 16.2534 155.112 15.8565 155.867C15.4595 156.61 15.261 157.756 15.261 159.305ZM17.5058 163.873C18.2178 163.873 18.7732 163.502 19.1701 162.758C19.5671 162.004 19.7656 160.853 19.7656 159.305C19.7656 157.991 19.6379 156.972 19.3835 156.248L15.9944 163.079C16.3606 163.609 16.8647 163.873 17.5058 163.873Z" fill="url(#paint44_linear)"/>
<path d="M18.4218 181.217H20.6667V182.026H14.8491V181.217H17.4443V172.628L14.9712 174.111L14.5435 173.422L17.5972 171.528H18.4218V181.217Z" fill="url(#paint45_linear)"/>
<path d="M17.5058 188.839C18.5952 188.839 19.4189 189.303 19.979 190.229C20.5493 191.146 20.8344 192.481 20.8344 194.233C20.8344 195.985 20.5493 197.325 19.979 198.252C19.4199 199.179 18.5952 199.643 17.5058 199.643C16.4267 199.643 15.6021 199.179 15.0327 198.252C14.4624 197.325 14.1772 195.985 14.1772 194.233C14.1772 192.491 14.4624 191.157 15.0327 190.229C15.6021 189.303 16.4267 188.839 17.5058 188.839ZM15.261 194.233C15.261 195.476 15.3728 196.449 15.5965 197.152L18.9866 190.382C18.6306 189.903 18.1367 189.664 17.5049 189.664C16.8032 189.664 16.2534 190.041 15.8565 190.794C15.4595 191.538 15.261 192.685 15.261 194.233ZM17.5058 198.802C18.2178 198.802 18.7732 198.43 19.1701 197.686C19.5671 196.933 19.7656 195.782 19.7656 194.233C19.7656 192.918 19.6379 191.9 19.3835 191.177L15.9944 198.008C16.3606 198.537 16.8647 198.802 17.5058 198.802Z" fill="url(#paint46_linear)"/>
<path d="M45.8605 31.6611C46.9498 31.6611 47.7745 32.1249 48.3336 33.0514C48.9039 33.9687 49.189 35.3031 49.189 37.0556C49.189 38.8081 48.9039 40.1472 48.3336 41.0747C47.7745 42.0012 46.9498 42.465 45.8605 42.465C44.7814 42.465 43.9576 42.0012 43.3873 41.0747C42.817 40.1472 42.5319 38.8081 42.5319 37.0556C42.5319 35.3133 42.817 33.9789 43.3873 33.0514C43.9567 32.1249 44.7814 31.6611 45.8605 31.6611ZM43.6165 37.0556C43.6165 38.2978 43.7284 39.2719 43.952 39.974L47.3412 33.2041C46.9852 32.7255 46.4913 32.4871 45.8605 32.4871C45.1578 32.4871 44.609 32.8633 44.2111 33.6167C43.815 34.3616 43.6165 35.507 43.6165 37.0556ZM45.8605 41.6241C46.5733 41.6241 47.1278 41.2525 47.5247 40.5094C47.9217 39.7552 48.1202 38.6042 48.1202 37.0547C48.1202 35.7417 47.9925 34.722 47.7381 33.9994L44.349 40.8298C44.7152 41.3596 45.2193 41.6241 45.8605 41.6241Z" fill="url(#paint47_linear)"/>
<path d="M46.7765 58.9665H49.0213V59.7767H43.2037V58.9665H45.7999V50.378L43.3258 51.8605L42.8981 51.1723L45.9518 49.2773H46.7765V58.9665Z" fill="url(#paint48_linear)"/>
<path d="M46.7765 76.4304H49.0213V77.2406H43.2037V76.4304H45.7999V67.8429L43.3258 69.3244L42.8981 68.6372L45.9518 66.7422H46.7765V76.4304Z" fill="url(#paint49_linear)"/>
<path d="M45.8605 84.0537C46.9498 84.0537 47.7745 84.5175 48.3336 85.4449C48.9039 86.3612 49.189 87.6956 49.189 89.4491C49.189 91.1998 48.9039 92.5407 48.3336 93.4672C47.7745 94.3947 46.9498 94.8575 45.8605 94.8575C44.7814 94.8575 43.9576 94.3947 43.3873 93.4672C42.817 92.5398 42.5319 91.2007 42.5319 89.4482C42.5319 87.7068 42.817 86.3715 43.3873 85.444C43.9567 84.5174 44.7814 84.0537 45.8605 84.0537ZM43.6165 89.4482C43.6165 90.6913 43.7284 91.6644 43.952 92.3666L47.3412 85.5967C46.9852 85.119 46.4913 84.8797 45.8605 84.8797C45.1578 84.8797 44.609 85.2559 44.2111 86.0102C43.815 86.7533 43.6165 87.9005 43.6165 89.4482ZM45.8605 94.0176C46.5733 94.0176 47.1278 93.6451 47.5247 92.902C47.9217 92.1477 48.1202 90.9968 48.1202 89.4482C48.1202 88.1342 47.9925 87.1155 47.7381 86.392L44.349 93.2223C44.7152 93.7522 45.2193 94.0176 45.8605 94.0176Z" fill="url(#paint50_linear)"/>
<path d="M45.8605 101.519C46.9498 101.519 47.7745 101.982 48.3336 102.909C48.9039 103.826 49.189 105.16 49.189 106.913C49.189 108.665 48.9039 110.005 48.3336 110.931C47.7745 111.859 46.9498 112.322 45.8605 112.322C44.7814 112.322 43.9576 111.859 43.3873 110.931C42.817 110.005 42.5319 108.665 42.5319 106.913C42.5319 105.171 42.817 103.836 43.3873 102.909C43.9567 101.982 44.7814 101.519 45.8605 101.519ZM43.6165 106.913C43.6165 108.155 43.7284 109.128 43.952 109.831L47.3412 103.062C46.9852 102.583 46.4913 102.344 45.8605 102.344C45.1578 102.344 44.609 102.721 44.2111 103.474C43.815 104.218 43.6165 105.364 43.6165 106.913ZM45.8605 111.482C46.5733 111.482 47.1278 111.11 47.5247 110.366C47.9217 109.613 48.1202 108.461 48.1202 106.913C48.1202 105.598 47.9925 104.579 47.7381 103.857L44.349 110.687C44.7152 111.217 45.2193 111.482 45.8605 111.482Z" fill="url(#paint51_linear)"/>
<path d="M530.011 140.988H532.255V141.798H526.439V140.988H529.034V132.4L526.561 133.882L526.133 133.195L529.187 131.3H530.011V140.988Z" fill="url(#paint52_linear)"/>
<path d="M529.095 148.611C530.185 148.611 531.008 149.075 531.569 150.003C532.139 150.919 532.424 152.253 532.424 154.006C532.424 155.758 532.139 157.097 531.569 158.025C531.008 158.952 530.185 159.415 529.095 159.415C528.016 159.415 527.192 158.952 526.622 158.025C526.052 157.097 525.767 155.758 525.767 154.006C525.767 152.264 526.052 150.929 526.622 150.003C527.192 149.075 528.016 148.611 529.095 148.611ZM526.851 154.006C526.851 155.249 526.963 156.222 527.187 156.924L530.576 150.155C530.22 149.677 529.726 149.436 529.095 149.436C528.393 149.436 527.843 149.814 527.446 150.568C527.049 151.311 526.851 152.457 526.851 154.006ZM529.095 158.575C529.808 158.575 530.363 158.203 530.76 157.46C531.157 156.705 531.355 155.554 531.355 154.006C531.355 152.692 531.227 151.673 530.973 150.95L527.584 157.78C527.95 158.31 528.454 158.575 529.095 158.575Z" fill="url(#paint53_linear)"/>
<path d="M530.011 175.917H532.255V176.727H526.439V175.917H529.034V167.328L526.561 168.811L526.133 168.124L529.187 166.229H530.011V175.917Z" fill="url(#paint54_linear)"/>
<path d="M530.011 193.381H532.255V194.191H526.439V193.381H529.034V184.793L526.561 186.276L526.133 185.587L529.187 183.692H530.011V193.381Z" fill="url(#paint55_linear)"/>
<path d="M529.095 201.004C530.185 201.004 531.008 201.467 531.569 202.394C532.139 203.311 532.424 204.646 532.424 206.397C532.424 208.15 532.139 209.49 531.569 210.417C531.008 211.344 530.185 211.808 529.095 211.808C528.016 211.808 527.192 211.344 526.622 210.417C526.052 209.49 525.767 208.15 525.767 206.397C525.767 204.656 526.052 203.322 526.622 202.394C527.192 201.467 528.016 201.004 529.095 201.004ZM526.851 206.397C526.851 207.641 526.963 208.614 527.187 209.317L530.576 202.547C530.22 202.068 529.726 201.829 529.095 201.829C528.393 201.829 527.843 202.206 527.446 202.959C527.049 203.703 526.851 204.85 526.851 206.397ZM529.095 210.967C529.808 210.967 530.363 210.595 530.76 209.851C531.157 209.098 531.355 207.946 531.355 206.397C531.355 205.084 531.227 204.065 530.973 203.341L527.584 210.173C527.95 210.702 528.454 210.967 529.095 210.967Z" fill="url(#paint56_linear)"/>
<path d="M530.011 228.309H532.255V229.119H526.439V228.309H529.034V219.722L526.561 221.204L526.133 220.516L529.187 218.621H530.011V228.309Z" fill="url(#paint57_linear)"/>
<path d="M529.095 235.933C530.185 235.933 531.008 236.395 531.569 237.323C532.139 238.239 532.424 239.575 532.424 241.326C532.424 243.079 532.139 244.419 531.569 245.345C531.008 246.273 530.185 246.736 529.095 246.736C528.016 246.736 527.192 246.273 526.622 245.345C526.052 244.419 525.767 243.079 525.767 241.326C525.767 239.585 526.052 238.249 526.622 237.323C527.192 236.395 528.016 235.933 529.095 235.933ZM526.851 241.326C526.851 242.569 526.963 243.542 527.187 244.245L530.576 237.476C530.22 236.997 529.726 236.758 529.095 236.758C528.393 236.758 527.843 237.134 527.446 237.888C527.049 238.632 526.851 239.778 526.851 241.326ZM529.095 245.896C529.808 245.896 530.363 245.524 530.76 244.78C531.157 244.026 531.355 242.875 531.355 241.326C531.355 240.012 531.227 238.993 530.973 238.27L527.584 245.101C527.95 245.63 528.454 245.896 529.095 245.896Z" fill="url(#paint58_linear)"/>
<path d="M529.095 253.396C530.185 253.396 531.008 253.86 531.569 254.787C532.139 255.704 532.424 257.038 532.424 258.791C532.424 260.543 532.139 261.883 531.569 262.81C531.008 263.737 530.185 264.2 529.095 264.2C528.016 264.2 527.192 263.737 526.622 262.81C526.052 261.883 525.767 260.543 525.767 258.791C525.767 257.049 526.052 255.714 526.622 254.787C527.192 253.86 528.016 253.396 529.095 253.396ZM526.851 258.791C526.851 260.033 526.963 261.006 527.187 261.709L530.576 254.939C530.22 254.461 529.726 254.222 529.095 254.222C528.393 254.222 527.843 254.599 527.446 255.352C527.049 256.096 526.851 257.242 526.851 258.791ZM529.095 263.359C529.808 263.359 530.363 262.988 530.76 262.244C531.157 261.491 531.355 260.34 531.355 258.791C531.355 257.476 531.227 256.457 530.973 255.735L527.584 262.565C527.95 263.095 528.454 263.359 529.095 263.359Z" fill="url(#paint59_linear)"/>
<path d="M530.011 280.702H532.255V281.511H526.439V280.702H529.034V272.113L526.561 273.596L526.133 272.908L529.187 271.014H530.011V280.702Z" fill="url(#paint60_linear)"/>
<path d="M529.095 288.325C530.185 288.325 531.008 288.789 531.569 289.715C532.139 290.633 532.424 291.967 532.424 293.72C532.424 295.471 532.139 296.811 531.569 297.738C531.008 298.665 530.185 299.129 529.095 299.129C528.016 299.129 527.192 298.665 526.622 297.738C526.052 296.811 525.767 295.471 525.767 293.72C525.767 291.977 526.052 290.643 526.622 289.715C527.192 288.789 528.016 288.325 529.095 288.325ZM526.851 293.72C526.851 294.962 526.963 295.935 527.187 296.638L530.576 289.868C530.22 289.39 529.726 289.15 529.095 289.15C528.393 289.15 527.843 289.527 527.446 290.281C527.049 291.025 526.851 292.171 526.851 293.72ZM529.095 298.288C529.808 298.288 530.363 297.917 530.76 297.173C531.157 296.419 531.355 295.268 531.355 293.72C531.355 292.405 531.227 291.386 530.973 290.663L527.584 297.494C527.95 298.024 528.454 298.288 529.095 298.288Z" fill="url(#paint61_linear)"/>
<path d="M530.011 315.63H532.255V316.44H526.439V315.63H529.034V307.042L526.561 308.525L526.133 307.836L529.187 305.941H530.011V315.63Z" fill="url(#paint62_linear)"/>
<path d="M514.918 166.075C516.007 166.075 516.831 166.539 517.391 167.465C517.961 168.383 518.247 169.717 518.247 171.47C518.247 173.221 517.961 174.561 517.391 175.488C516.831 176.415 516.007 176.879 514.918 176.879C513.839 176.879 513.014 176.415 512.445 175.488C511.875 174.561 511.589 173.221 511.589 171.47C511.589 169.727 511.875 168.393 512.445 167.465C513.014 166.539 513.839 166.075 514.918 166.075ZM512.673 171.47C512.673 172.712 512.785 173.685 513.01 174.388L516.399 167.618C516.043 167.14 515.549 166.9 514.918 166.9C514.215 166.9 513.666 167.277 513.269 168.031C512.872 168.775 512.673 169.921 512.673 171.47ZM514.918 176.038C515.63 176.038 516.185 175.667 516.582 174.923C516.979 174.169 517.178 173.017 517.178 171.47C517.178 170.155 517.05 169.136 516.796 168.413L513.407 175.244C513.773 175.774 514.277 176.038 514.918 176.038Z" fill="url(#paint63_linear)"/>
<path d="M514.918 183.539C516.007 183.539 516.831 184.003 517.391 184.93C517.961 185.847 518.247 187.181 518.247 188.934C518.247 190.686 517.961 192.025 517.391 192.953C516.831 193.879 516.007 194.343 514.918 194.343C513.839 194.343 513.014 193.879 512.445 192.953C511.875 192.025 511.589 190.686 511.589 188.934C511.589 187.191 511.875 185.857 512.445 184.93C513.014 184.003 513.839 183.539 514.918 183.539ZM512.673 188.934C512.673 190.177 512.785 191.149 513.01 191.852L516.399 185.083C516.043 184.603 515.549 184.364 514.918 184.364C514.215 184.364 513.666 184.741 513.269 185.496C512.872 186.239 512.673 187.385 512.673 188.934ZM514.918 193.503C515.63 193.503 516.185 193.13 516.582 192.387C516.979 191.633 517.178 190.482 517.178 188.934C517.178 187.62 517.05 186.601 516.796 185.877L513.407 192.708C513.773 193.238 514.277 193.503 514.918 193.503Z" fill="url(#paint64_linear)"/>
<path d="M515.834 210.845H518.078V211.656H512.261V210.845H514.857V202.257L512.383 203.739L511.956 203.052L515.009 201.157H515.834V210.845Z" fill="url(#paint65_linear)"/>
<path d="M514.918 218.468C516.007 218.468 516.831 218.932 517.391 219.858C517.961 220.775 518.247 222.11 518.247 223.862C518.247 225.615 517.961 226.954 517.391 227.881C516.831 228.808 516.007 229.272 514.918 229.272C513.839 229.272 513.014 228.808 512.445 227.881C511.875 226.954 511.589 225.615 511.589 223.862C511.589 222.12 511.875 220.786 512.445 219.858C513.014 218.932 513.839 218.468 514.918 218.468ZM512.673 223.862C512.673 225.105 512.785 226.078 513.01 226.781L516.399 220.012C516.043 219.532 515.549 219.293 514.918 219.293C514.215 219.293 513.666 219.67 513.269 220.424C512.872 221.167 512.673 222.314 512.673 223.862ZM514.918 228.431C515.63 228.431 516.185 228.059 516.582 227.316C516.979 226.562 517.178 225.411 517.178 223.862C517.178 222.548 517.05 221.53 516.796 220.806L513.407 227.636C513.773 228.166 514.277 228.431 514.918 228.431Z" fill="url(#paint66_linear)"/>
<path d="M515.834 245.773H518.078V246.582H512.261V245.773H514.857V237.185L512.383 238.667L511.956 237.979L515.009 236.085H515.834V245.773Z" fill="url(#paint67_linear)"/>
<path d="M515.834 263.237H518.078V264.047H512.261V263.237H514.857V254.65L512.383 256.131L511.956 255.444L515.009 253.549H515.834V263.237Z" fill="url(#paint68_linear)"/>
<path d="M544.189 193.381H546.433V194.191H540.616V193.381H543.211V184.793L540.738 186.276L540.31 185.587L543.364 183.692H544.189V193.381Z" fill="url(#paint69_linear)"/>
<path d="M543.273 201.004C544.362 201.004 545.187 201.467 545.746 202.394C546.316 203.311 546.601 204.646 546.601 206.397C546.601 208.15 546.316 209.49 545.746 210.417C545.187 211.344 544.362 211.808 543.273 211.808C542.193 211.808 541.369 211.344 540.799 210.417C540.229 209.49 539.944 208.15 539.944 206.397C539.944 204.656 540.229 203.322 540.799 202.394C541.369 201.467 542.193 201.004 543.273 201.004ZM541.028 206.397C541.028 207.641 541.141 208.614 541.364 209.317L544.753 202.547C544.397 202.068 543.903 201.829 543.273 201.829C542.57 201.829 542.02 202.206 541.623 202.959C541.226 203.703 541.028 204.85 541.028 206.397ZM543.273 210.967C543.985 210.967 544.54 210.595 544.937 209.851C545.334 209.098 545.532 207.946 545.532 206.397C545.532 205.084 545.405 204.065 545.15 203.341L541.761 210.173C542.127 210.702 542.631 210.967 543.273 210.967Z" fill="url(#paint70_linear)"/>
<path d="M544.189 228.309H546.433V229.119H540.616V228.309H543.211V219.722L540.738 221.204L540.31 220.516L543.364 218.621H544.189V228.309Z" fill="url(#paint71_linear)"/>
<path d="M544.189 245.773H546.433V246.582H540.616V245.773H543.211V237.185L540.738 238.667L540.31 237.979L543.364 236.085H544.189V245.773Z" fill="url(#paint72_linear)"/>
<path d="M543.273 253.396C544.362 253.396 545.187 253.86 545.746 254.787C546.316 255.704 546.601 257.038 546.601 258.791C546.601 260.543 546.316 261.883 545.746 262.81C545.187 263.737 544.362 264.2 543.273 264.2C542.193 264.2 541.369 263.737 540.799 262.81C540.229 261.883 539.944 260.543 539.944 258.791C539.944 257.049 540.229 255.714 540.799 254.787C541.369 253.86 542.193 253.396 543.273 253.396ZM541.028 258.791C541.028 260.033 541.141 261.006 541.364 261.709L544.753 254.939C544.397 254.461 543.903 254.222 543.273 254.222C542.57 254.222 542.02 254.599 541.623 255.352C541.226 256.096 541.028 257.242 541.028 258.791ZM543.273 263.359C543.985 263.359 544.54 262.988 544.937 262.244C545.334 261.491 545.532 260.34 545.532 258.791C545.532 257.476 545.405 256.457 545.15 255.735L541.761 262.565C542.127 263.095 542.631 263.359 543.273 263.359Z" fill="url(#paint73_linear)"/>
<path d="M544.189 280.702H546.433V281.511H540.616V280.702H543.211V272.113L540.738 273.596L540.31 272.908L543.364 271.014H544.189V280.702Z" fill="url(#paint74_linear)"/>
<path d="M543.273 288.325C544.362 288.325 545.187 288.789 545.746 289.715C546.316 290.633 546.601 291.967 546.601 293.72C546.601 295.471 546.316 296.811 545.746 297.738C545.187 298.665 544.362 299.129 543.273 299.129C542.193 299.129 541.369 298.665 540.799 297.738C540.229 296.811 539.944 295.471 539.944 293.72C539.944 291.977 540.229 290.643 540.799 289.715C541.369 288.789 542.193 288.325 543.273 288.325ZM541.028 293.72C541.028 294.962 541.141 295.935 541.364 296.638L544.753 289.868C544.397 289.39 543.903 289.15 543.273 289.15C542.57 289.15 542.02 289.527 541.623 290.281C541.226 291.025 541.028 292.171 541.028 293.72ZM543.273 298.288C543.985 298.288 544.54 297.917 544.937 297.173C545.334 296.419 545.532 295.268 545.532 293.72C545.532 292.405 545.405 291.386 545.15 290.663L541.761 297.494C542.127 298.024 542.631 298.288 543.273 298.288Z" fill="url(#paint75_linear)"/>
<path d="M335.054 27.3054H337.298V28.1156H331.481V27.3054H334.076V18.7169L331.603 20.1994L331.175 19.5113L334.229 17.6172H335.054V27.3054Z" fill="url(#paint76_linear)"/>
<path d="M335.054 44.7693H337.298V45.5794H331.481V44.7693H334.076V36.1817L331.603 37.6633L331.175 36.9761L334.229 35.0811H335.054V44.7693Z" fill="url(#paint77_linear)"/>
<path d="M334.138 52.3926C335.227 52.3926 336.051 52.8563 336.611 53.7838C337.181 54.7001 337.466 56.0345 337.466 57.788C337.466 59.5386 337.181 60.8796 336.611 61.8061C336.051 62.7336 335.227 63.1964 334.138 63.1964C333.059 63.1964 332.234 62.7336 331.665 61.8061C331.094 60.8786 330.809 59.5396 330.809 57.787C330.809 56.0457 331.094 54.7103 331.665 53.7829C332.234 52.8563 333.059 52.3926 334.138 52.3926ZM331.893 57.787C331.893 59.0302 332.005 60.0033 332.229 60.7054L335.619 53.9356C335.263 53.4579 334.769 53.2186 334.138 53.2186C333.435 53.2186 332.885 53.5948 332.488 54.349C332.091 55.0921 331.893 56.2394 331.893 57.787ZM334.138 62.3565C334.85 62.3565 335.405 61.984 335.802 61.2409C336.199 60.4866 336.398 59.3356 336.398 57.787C336.398 56.4731 336.27 55.4544 336.015 54.7308L332.626 61.5612C332.993 62.092 333.497 62.3565 334.138 62.3565Z" fill="url(#paint78_linear)"/>
<path d="M335.054 79.698H337.298V80.5082H331.481V79.698H334.076V71.1095L331.603 72.592L331.175 71.9048L334.229 70.0098H335.054V79.698Z" fill="url(#paint79_linear)"/>
<path d="M334.138 87.3213C335.227 87.3213 336.051 87.785 336.611 88.7116C337.181 89.6288 337.466 90.9632 337.466 92.7158C337.466 94.4683 337.181 95.8074 336.611 96.7348C336.051 97.6614 335.227 98.1251 334.138 98.1251C333.059 98.1251 332.234 97.6614 331.665 96.7348C331.094 95.8074 330.809 94.4683 330.809 92.7158C330.809 90.9744 331.094 89.6391 331.665 88.7116C332.234 87.785 333.059 87.3213 334.138 87.3213ZM331.893 92.7158C331.893 93.9589 332.005 94.9311 332.229 95.6341L335.619 88.8643C335.263 88.3857 334.769 88.1473 334.138 88.1473C333.435 88.1473 332.885 88.5235 332.488 89.2777C332.091 90.0208 331.893 91.1681 331.893 92.7158ZM334.138 97.2852C334.85 97.2852 335.405 96.9127 335.802 96.1696C336.199 95.4153 336.398 94.2643 336.398 92.7158C336.398 91.4018 336.27 90.3831 336.015 89.6595L332.626 96.4899C332.993 97.0198 333.497 97.2852 334.138 97.2852Z" fill="url(#paint80_linear)"/>
<path d="M362.492 0C363.582 0 364.406 0.46374 364.966 1.39029C365.536 2.30752 365.821 3.64194 365.821 5.39446C365.821 7.14606 365.536 8.48606 364.966 9.41354C364.406 10.3401 363.582 10.8038 362.492 10.8038C361.413 10.8038 360.589 10.3401 360.019 9.41354C359.449 8.48606 359.164 7.14606 359.164 5.39446C359.164 3.65218 359.449 2.31777 360.019 1.39029C360.589 0.46374 361.413 0 362.492 0ZM360.248 5.39446C360.248 6.63669 360.36 7.61073 360.584 8.31286L363.973 1.543C363.617 1.06437 363.123 0.825978 362.492 0.825978C361.79 0.825978 361.24 1.20218 360.843 1.95553C360.446 2.70049 360.248 3.84587 360.248 5.39446ZM362.492 9.96295C363.205 9.96295 363.76 9.5914 364.157 8.84737C364.554 8.09309 364.752 6.94306 364.752 5.39446C364.752 4.08054 364.625 3.06087 364.37 2.33825L360.981 9.16863C361.347 9.69849 361.851 9.96295 362.492 9.96295Z" fill="url(#paint81_linear)"/>
<path d="M363.408 27.3054H365.653V28.1156H359.836V27.3054H362.431V18.7169L359.958 20.1994L359.53 19.5113L362.584 17.6172H363.408V27.3054Z" fill="url(#paint82_linear)"/>
<path d="M362.492 34.9287C363.582 34.9287 364.406 35.3925 364.966 36.319C365.536 37.2362 365.821 38.5706 365.821 40.3232C365.821 42.0748 365.536 43.4148 364.966 44.3423C364.406 45.2688 363.582 45.7325 362.492 45.7325C361.413 45.7325 360.589 45.2688 360.019 44.3423C359.449 43.4148 359.164 42.0748 359.164 40.3232C359.164 38.5809 359.449 37.2465 360.019 36.319C360.589 35.3925 361.413 34.9287 362.492 34.9287ZM360.248 40.3232C360.248 41.5654 360.36 42.5394 360.584 43.2416L363.973 36.4717C363.617 35.9931 363.123 35.7538 362.492 35.7538C361.79 35.7538 361.24 36.1309 360.843 36.8842C360.446 37.6283 360.248 38.7746 360.248 40.3232ZM362.492 44.8917C363.205 44.8917 363.76 44.5201 364.157 43.7761C364.554 43.0218 364.752 41.8718 364.752 40.3232C364.752 39.0083 364.625 37.9896 364.37 37.267L360.981 44.0973C361.347 44.6272 361.851 44.8917 362.492 44.8917Z" fill="url(#paint83_linear)"/>
<path d="M362.492 52.3926C363.582 52.3926 364.406 52.8563 364.966 53.7838C365.536 54.7001 365.821 56.0345 365.821 57.788C365.821 59.5386 365.536 60.8796 364.966 61.8061C364.406 62.7336 363.582 63.1964 362.492 63.1964C361.413 63.1964 360.589 62.7336 360.019 61.8061C359.449 60.8786 359.164 59.5396 359.164 57.787C359.164 56.0457 359.449 54.7103 360.019 53.7829C360.589 52.8563 361.413 52.3926 362.492 52.3926ZM360.248 57.787C360.248 59.0302 360.36 60.0033 360.584 60.7054L363.973 53.9356C363.617 53.4579 363.123 53.2186 362.492 53.2186C361.79 53.2186 361.24 53.5948 360.843 54.349C360.446 55.0921 360.248 56.2394 360.248 57.787ZM362.492 62.3565C363.205 62.3565 363.76 61.984 364.157 61.2409C364.554 60.4866 364.752 59.3356 364.752 57.787C364.752 56.4731 364.625 55.4544 364.37 54.7308L360.981 61.5612C361.347 62.092 361.851 62.3565 362.492 62.3565Z" fill="url(#paint84_linear)"/>
<path d="M349.231 44.7693H351.475V45.5794H345.658V44.7693H348.254V36.1817L345.78 37.6633L345.353 36.9761L348.406 35.0811H349.231V44.7693Z" fill="url(#paint85_linear)"/>
<path d="M348.315 52.3926C349.404 52.3926 350.228 52.8563 350.788 53.7838C351.358 54.7001 351.644 56.0345 351.644 57.788C351.644 59.5386 351.358 60.8796 350.788 61.8061C350.228 62.7336 349.404 63.1964 348.315 63.1964C347.236 63.1964 346.411 62.7336 345.842 61.8061C345.272 60.8786 344.986 59.5396 344.986 57.787C344.986 56.0457 345.272 54.7103 345.842 53.7829C346.411 52.8563 347.236 52.3926 348.315 52.3926ZM346.07 57.787C346.07 59.0302 346.183 60.0033 346.407 60.7054L349.796 53.9356C349.44 53.4579 348.946 53.2186 348.315 53.2186C347.612 53.2186 347.063 53.5948 346.666 54.349C346.269 55.0921 346.07 56.2394 346.07 57.787ZM348.315 62.3565C349.028 62.3565 349.582 61.984 349.979 61.2409C350.376 60.4866 350.575 59.3356 350.575 57.787C350.575 56.4731 350.447 55.4544 350.193 54.7308L346.804 61.5612C347.17 62.092 347.674 62.3565 348.315 62.3565Z" fill="url(#paint86_linear)"/>
<path d="M349.231 79.698H351.475V80.5082H345.658V79.698H348.254V71.1095L345.78 72.592L345.353 71.9048L348.406 70.0098H349.231V79.698Z" fill="url(#paint87_linear)"/>
<path d="M179.261 240.662L185.834 246.756L171.868 258.943L165.844 253.357C146.128 235.077 135.175 210.704 135.175 184.807C135.175 158.911 146.128 134.538 165.844 116.257L171.868 110.672L185.834 122.859L179.261 128.952C146.128 159.673 146.128 209.689 179.261 240.662Z" fill="#04D361"/>
<path d="M139.008 284.585L140.652 286.109L126.686 298.295L125.591 297.279C58.7769 235.331 58.7769 134.538 125.591 72.5892L126.686 71.5732L140.652 83.7599L139.008 85.2834C79.5881 139.869 79.5881 229.491 139.008 284.585ZM212.668 184.553L234.301 204.864L220.335 217.051L185.559 184.553L220.335 152.31L234.301 164.496L212.668 184.553ZM369.024 240.662L362.452 246.756L376.417 258.943L382.442 253.356C402.157 235.077 413.11 210.703 413.11 184.807C413.11 158.911 402.157 134.538 382.442 116.257L376.417 110.672L362.452 122.858L369.024 128.952C402.431 159.673 402.431 209.688 369.024 240.662Z" fill="#04D361"/>
<path d="M409.275 284.585L407.632 286.108L421.598 298.294L422.693 297.279C489.507 235.331 489.507 134.538 422.693 72.5892L421.598 71.5732L407.632 83.7599L409.275 85.2834C468.696 139.869 468.696 229.491 409.275 284.585ZM335.617 184.553L313.985 204.864L327.949 217.051L362.725 184.553L327.949 152.31L313.985 164.496L335.617 184.553ZM297.828 135.807L268.529 233.553H248.813L278.113 135.807H297.828Z" fill="#04D361"/>
<defs>
<linearGradient id="paint0_linear" x1="239.529" y1="378.087" x2="239.529" y2="236.83" gradientUnits="userSpaceOnUse">
<stop stop-color="#04D361"/>
<stop offset="1" stop-color="#04D361" stop-opacity="0"/>
</linearGradient>
<linearGradient id="paint1_linear" x1="239.529" y1="378.087" x2="239.529" y2="236.83" gradientUnits="userSpaceOnUse">
<stop stop-color="#04D361"/>
<stop offset="1" stop-color="#04D361" stop-opacity="0"/>
</linearGradient>
<linearGradient id="paint2_linear" x1="239.529" y1="378.087" x2="239.529" y2="236.83" gradientUnits="userSpaceOnUse">
<stop stop-color="#04D361"/>
<stop offset="1" stop-color="#04D361" stop-opacity="0"/>
</linearGradient>
<linearGradient id="paint3_linear" x1="239.529" y1="378.088" x2="239.529" y2="236.831" gradientUnits="userSpaceOnUse">
<stop stop-color="#04D361"/>
<stop offset="1" stop-color="#04D361" stop-opacity="0"/>
</linearGradient>
<linearGradient id="paint4_linear" x1="239.529" y1="378.088" x2="239.529" y2="236.831" gradientUnits="userSpaceOnUse">
<stop stop-color="#04D361"/>
<stop offset="1" stop-color="#04D361" stop-opacity="0"/>
</linearGradient>
<linearGradient id="paint5_linear" x1="239.529" y1="378.087" x2="239.529" y2="236.831" gradientUnits="userSpaceOnUse">
<stop stop-color="#04D361"/>
<stop offset="1" stop-color="#04D361" stop-opacity="0"/>
</linearGradient>
<linearGradient id="paint6_linear" x1="239.529" y1="378.087" x2="239.529" y2="236.83" gradientUnits="userSpaceOnUse">
<stop stop-color="#04D361"/>
<stop offset="1" stop-color="#04D361" stop-opacity="0"/>
</linearGradient>
<linearGradient id="paint7_linear" x1="239.529" y1="378.088" x2="239.529" y2="236.83" gradientUnits="userSpaceOnUse">
<stop stop-color="#04D361"/>
<stop offset="1" stop-color="#04D361" stop-opacity="0"/>
</linearGradient>
<linearGradient id="paint8_linear" x1="239.529" y1="378.087" x2="239.529" y2="236.83" gradientUnits="userSpaceOnUse">
<stop stop-color="#04D361"/>
<stop offset="1" stop-color="#04D361" stop-opacity="0"/>
</linearGradient>
<linearGradient id="paint9_linear" x1="239.529" y1="378.087" x2="239.529" y2="236.83" gradientUnits="userSpaceOnUse">
<stop stop-color="#04D361"/>
<stop offset="1" stop-color="#04D361" stop-opacity="0"/>
</linearGradient>
<linearGradient id="paint10_linear" x1="239.529" y1="378.087" x2="239.529" y2="236.83" gradientUnits="userSpaceOnUse">
<stop stop-color="#04D361"/>
<stop offset="1" stop-color="#04D361" stop-opacity="0"/>
</linearGradient>
<linearGradient id="paint11_linear" x1="239.529" y1="378.087" x2="239.529" y2="236.83" gradientUnits="userSpaceOnUse">
<stop stop-color="#04D361"/>
<stop offset="1" stop-color="#04D361" stop-opacity="0"/>
</linearGradient>
<linearGradient id="paint12_linear" x1="239.529" y1="378.087" x2="239.529" y2="236.83" gradientUnits="userSpaceOnUse">
<stop stop-color="#04D361"/>
<stop offset="1" stop-color="#04D361" stop-opacity="0"/>
</linearGradient>
<linearGradient id="paint13_linear" x1="239.529" y1="378.087" x2="239.529" y2="236.83" gradientUnits="userSpaceOnUse">
<stop stop-color="#04D361"/>
<stop offset="1" stop-color="#04D361" stop-opacity="0"/>
</linearGradient>
<linearGradient id="paint14_linear" x1="62.9003" y1="269.347" x2="62.9003" y2="31.6609" gradientUnits="userSpaceOnUse">
<stop stop-color="#04D361"/>
<stop offset="1" stop-color="#04D361" stop-opacity="0"/>
</linearGradient>
<linearGradient id="paint15_linear" x1="62.9003" y1="269.347" x2="62.9003" y2="31.661" gradientUnits="userSpaceOnUse">
<stop stop-color="#04D361"/>
<stop offset="1" stop-color="#04D361" stop-opacity="0"/>
</linearGradient>
<linearGradient id="paint16_linear" x1="62.9003" y1="269.348" x2="62.9003" y2="31.6615" gradientUnits="userSpaceOnUse">
<stop stop-color="#04D361"/>
<stop offset="1" stop-color="#04D361" stop-opacity="0"/>
</linearGradient>
<linearGradient id="paint17_linear" x1="62.9003" y1="269.347" x2="62.9003" y2="31.6612" gradientUnits="userSpaceOnUse">
<stop stop-color="#04D361"/>
<stop offset="1" stop-color="#04D361" stop-opacity="0"/>
</linearGradient>
<linearGradient id="paint18_linear" x1="62.9003" y1="269.347" x2="62.9003" y2="31.6607" gradientUnits="userSpaceOnUse">
<stop stop-color="#04D361"/>
<stop offset="1" stop-color="#04D361" stop-opacity="0"/>
</linearGradient>
<linearGradient id="paint19_linear" x1="62.9003" y1="269.347" x2="62.9003" y2="31.6609" gradientUnits="userSpaceOnUse">
<stop stop-color="#04D361"/>
<stop offset="1" stop-color="#04D361" stop-opacity="0"/>
</linearGradient>
<linearGradient id="paint20_linear" x1="62.9003" y1="269.348" x2="62.9003" y2="31.6614" gradientUnits="userSpaceOnUse">
<stop stop-color="#04D361"/>
<stop offset="1" stop-color="#04D361" stop-opacity="0"/>
</linearGradient>
<linearGradient id="paint21_linear" x1="62.9003" y1="269.347" x2="62.9003" y2="31.6609" gradientUnits="userSpaceOnUse">
<stop stop-color="#04D361"/>
<stop offset="1" stop-color="#04D361" stop-opacity="0"/>
</linearGradient>
<linearGradient id="paint22_linear" x1="62.9003" y1="269.347" x2="62.9003" y2="31.6608" gradientUnits="userSpaceOnUse">
<stop stop-color="#04D361"/>
<stop offset="1" stop-color="#04D361" stop-opacity="0"/>
</linearGradient>
<linearGradient id="paint23_linear" x1="62.9003" y1="269.347" x2="62.9003" y2="31.661" gradientUnits="userSpaceOnUse">
<stop stop-color="#04D361"/>
<stop offset="1" stop-color="#04D361" stop-opacity="0"/>
</linearGradient>
<linearGradient id="paint24_linear" x1="62.9003" y1="269.347" x2="62.9003" y2="31.6612" gradientUnits="userSpaceOnUse">
<stop stop-color="#04D361"/>
<stop offset="1" stop-color="#04D361" stop-opacity="0"/>
</linearGradient>
<linearGradient id="paint25_linear" x1="62.9003" y1="269.347" x2="62.9003" y2="31.661" gradientUnits="userSpaceOnUse">
<stop stop-color="#04D361"/>
<stop offset="1" stop-color="#04D361" stop-opacity="0"/>
</linearGradient>
<linearGradient id="paint26_linear" x1="62.9003" y1="269.347" x2="62.9003" y2="31.6614" gradientUnits="userSpaceOnUse">
<stop stop-color="#04D361"/>
<stop offset="1" stop-color="#04D361" stop-opacity="0"/>
</linearGradient>
<linearGradient id="paint27_linear" x1="62.9003" y1="269.348" x2="62.9003" y2="31.6615" gradientUnits="userSpaceOnUse">
<stop stop-color="#04D361"/>
<stop offset="1" stop-color="#04D361" stop-opacity="0"/>
</linearGradient>
<linearGradient id="paint28_linear" x1="62.9003" y1="269.347" x2="62.9003" y2="31.6612" gradientUnits="userSpaceOnUse">
<stop stop-color="#04D361"/>
<stop offset="1" stop-color="#04D361" stop-opacity="0"/>
</linearGradient>
<linearGradient id="paint29_linear" x1="62.9003" y1="269.347" x2="62.9003" y2="31.6607" gradientUnits="userSpaceOnUse">
<stop stop-color="#04D361"/>
<stop offset="1" stop-color="#04D361" stop-opacity="0"/>
</linearGradient>
<linearGradient id="paint30_linear" x1="62.9003" y1="269.347" x2="62.9003" y2="31.6615" gradientUnits="userSpaceOnUse">
<stop stop-color="#04D361"/>
<stop offset="1" stop-color="#04D361" stop-opacity="0"/>
</linearGradient>
<linearGradient id="paint31_linear" x1="62.9003" y1="269.347" x2="62.9003" y2="31.6608" gradientUnits="userSpaceOnUse">
<stop stop-color="#04D361"/>
<stop offset="1" stop-color="#04D361" stop-opacity="0"/>
</linearGradient>
<linearGradient id="paint32_linear" x1="62.9003" y1="269.347" x2="62.9003" y2="31.6609" gradientUnits="userSpaceOnUse">
<stop stop-color="#04D361"/>
<stop offset="1" stop-color="#04D361" stop-opacity="0"/>
</linearGradient>
<linearGradient id="paint33_linear" x1="62.9003" y1="269.347" x2="62.9003" y2="31.6608" gradientUnits="userSpaceOnUse">
<stop stop-color="#04D361"/>
<stop offset="1" stop-color="#04D361" stop-opacity="0"/>
</linearGradient>
<linearGradient id="paint34_linear" x1="62.9003" y1="269.347" x2="62.9003" y2="31.661" gradientUnits="userSpaceOnUse">
<stop stop-color="#04D361"/>
<stop offset="1" stop-color="#04D361" stop-opacity="0"/>
</linearGradient>
<linearGradient id="paint35_linear" x1="62.9003" y1="269.347" x2="62.9003" y2="31.661" gradientUnits="userSpaceOnUse">
<stop stop-color="#04D361"/>
<stop offset="1" stop-color="#04D361" stop-opacity="0"/>
</linearGradient>
<linearGradient id="paint36_linear" x1="62.9003" y1="269.347" x2="62.9003" y2="31.6605" gradientUnits="userSpaceOnUse">
<stop stop-color="#04D361"/>
<stop offset="1" stop-color="#04D361" stop-opacity="0"/>
</linearGradient>
<linearGradient id="paint37_linear" x1="62.9003" y1="269.347" x2="62.9003" y2="31.6608" gradientUnits="userSpaceOnUse">
<stop stop-color="#04D361"/>
<stop offset="1" stop-color="#04D361" stop-opacity="0"/>
</linearGradient>
<linearGradient id="paint38_linear" x1="62.9003" y1="269.347" x2="62.9003" y2="31.6612" gradientUnits="userSpaceOnUse">
<stop stop-color="#04D361"/>
<stop offset="1" stop-color="#04D361" stop-opacity="0"/>
</linearGradient>
<linearGradient id="paint39_linear" x1="62.9003" y1="269.347" x2="62.9003" y2="31.661" gradientUnits="userSpaceOnUse">
<stop stop-color="#04D361"/>
<stop offset="1" stop-color="#04D361" stop-opacity="0"/>
</linearGradient>
<linearGradient id="paint40_linear" x1="62.9003" y1="269.347" x2="62.9003" y2="31.661" gradientUnits="userSpaceOnUse">
<stop stop-color="#04D361"/>
<stop offset="1" stop-color="#04D361" stop-opacity="0"/>
</linearGradient>
<linearGradient id="paint41_linear" x1="62.9003" y1="269.348" x2="62.9003" y2="31.6615" gradientUnits="userSpaceOnUse">
<stop stop-color="#04D361"/>
<stop offset="1" stop-color="#04D361" stop-opacity="0"/>
</linearGradient>
<linearGradient id="paint42_linear" x1="62.9003" y1="269.347" x2="62.9003" y2="31.6612" gradientUnits="userSpaceOnUse">
<stop stop-color="#04D361"/>
<stop offset="1" stop-color="#04D361" stop-opacity="0"/>
</linearGradient>
<linearGradient id="paint43_linear" x1="62.9003" y1="269.347" x2="62.9003" y2="31.6612" gradientUnits="userSpaceOnUse">
<stop stop-color="#04D361"/>
<stop offset="1" stop-color="#04D361" stop-opacity="0"/>
</linearGradient>
<linearGradient id="paint44_linear" x1="62.9003" y1="269.347" x2="62.9003" y2="31.6609" gradientUnits="userSpaceOnUse">
<stop stop-color="#04D361"/>
<stop offset="1" stop-color="#04D361" stop-opacity="0"/>
</linearGradient>
<linearGradient id="paint45_linear" x1="62.9003" y1="269.348" x2="62.9003" y2="31.6614" gradientUnits="userSpaceOnUse">
<stop stop-color="#04D361"/>
<stop offset="1" stop-color="#04D361" stop-opacity="0"/>
</linearGradient>
<linearGradient id="paint46_linear" x1="62.9003" y1="269.347" x2="62.9003" y2="31.6609" gradientUnits="userSpaceOnUse">
<stop stop-color="#04D361"/>
<stop offset="1" stop-color="#04D361" stop-opacity="0"/>
</linearGradient>
<linearGradient id="paint47_linear" x1="62.9004" y1="269.347" x2="62.9004" y2="31.6611" gradientUnits="userSpaceOnUse">
<stop stop-color="#04D361"/>
<stop offset="1" stop-color="#04D361" stop-opacity="0"/>
</linearGradient>
<linearGradient id="paint48_linear" x1="62.9004" y1="269.347" x2="62.9004" y2="31.6608" gradientUnits="userSpaceOnUse">
<stop stop-color="#04D361"/>
<stop offset="1" stop-color="#04D361" stop-opacity="0"/>
</linearGradient>
<linearGradient id="paint49_linear" x1="62.9004" y1="269.347" x2="62.9004" y2="31.661" gradientUnits="userSpaceOnUse">
<stop stop-color="#04D361"/>
<stop offset="1" stop-color="#04D361" stop-opacity="0"/>
</linearGradient>
<linearGradient id="paint50_linear" x1="62.9004" y1="269.347" x2="62.9004" y2="31.6614" gradientUnits="userSpaceOnUse">
<stop stop-color="#04D361"/>
<stop offset="1" stop-color="#04D361" stop-opacity="0"/>
</linearGradient>
<linearGradient id="paint51_linear" x1="62.9004" y1="269.348" x2="62.9004" y2="31.6615" gradientUnits="userSpaceOnUse">
<stop stop-color="#04D361"/>
<stop offset="1" stop-color="#04D361" stop-opacity="0"/>
</linearGradient>
<linearGradient id="paint52_linear" x1="556.361" y1="316.44" x2="556.361" y2="131.3" gradientUnits="userSpaceOnUse">
<stop stop-color="#04D361"/>
<stop offset="1" stop-color="#04D361" stop-opacity="0"/>
</linearGradient>
<linearGradient id="paint53_linear" x1="556.361" y1="316.44" x2="556.361" y2="131.3" gradientUnits="userSpaceOnUse">
<stop stop-color="#04D361"/>
<stop offset="1" stop-color="#04D361" stop-opacity="0"/>
</linearGradient>
<linearGradient id="paint54_linear" x1="556.361" y1="316.44" x2="556.361" y2="131.3" gradientUnits="userSpaceOnUse">
<stop stop-color="#04D361"/>
<stop offset="1" stop-color="#04D361" stop-opacity="0"/>
</linearGradient>
<linearGradient id="paint55_linear" x1="556.361" y1="316.44" x2="556.361" y2="131.3" gradientUnits="userSpaceOnUse">
<stop stop-color="#04D361"/>
<stop offset="1" stop-color="#04D361" stop-opacity="0"/>
</linearGradient>
<linearGradient id="paint56_linear" x1="556.361" y1="316.44" x2="556.361" y2="131.3" gradientUnits="userSpaceOnUse">
<stop stop-color="#04D361"/>
<stop offset="1" stop-color="#04D361" stop-opacity="0"/>
</linearGradient>
<linearGradient id="paint57_linear" x1="556.361" y1="316.44" x2="556.361" y2="131.3" gradientUnits="userSpaceOnUse">
<stop stop-color="#04D361"/>
<stop offset="1" stop-color="#04D361" stop-opacity="0"/>
</linearGradient>
<linearGradient id="paint58_linear" x1="556.361" y1="316.44" x2="556.361" y2="131.3" gradientUnits="userSpaceOnUse">
<stop stop-color="#04D361"/>
<stop offset="1" stop-color="#04D361" stop-opacity="0"/>
</linearGradient>
<linearGradient id="paint59_linear" x1="556.361" y1="316.44" x2="556.361" y2="131.3" gradientUnits="userSpaceOnUse">
<stop stop-color="#04D361"/>
<stop offset="1" stop-color="#04D361" stop-opacity="0"/>
</linearGradient>
<linearGradient id="paint60_linear" x1="556.361" y1="316.44" x2="556.361" y2="131.3" gradientUnits="userSpaceOnUse">
<stop stop-color="#04D361"/>
<stop offset="1" stop-color="#04D361" stop-opacity="0"/>
</linearGradient>
<linearGradient id="paint61_linear" x1="556.361" y1="316.44" x2="556.361" y2="131.3" gradientUnits="userSpaceOnUse">
<stop stop-color="#04D361"/>
<stop offset="1" stop-color="#04D361" stop-opacity="0"/>
</linearGradient>
<linearGradient id="paint62_linear" x1="556.361" y1="316.44" x2="556.361" y2="131.3" gradientUnits="userSpaceOnUse">
<stop stop-color="#04D361"/>
<stop offset="1" stop-color="#04D361" stop-opacity="0"/>
</linearGradient>
<linearGradient id="paint63_linear" x1="556.36" y1="316.44" x2="556.36" y2="131.299" gradientUnits="userSpaceOnUse">
<stop stop-color="#04D361"/>
<stop offset="1" stop-color="#04D361" stop-opacity="0"/>
</linearGradient>
<linearGradient id="paint64_linear" x1="556.36" y1="316.44" x2="556.36" y2="131.299" gradientUnits="userSpaceOnUse">
<stop stop-color="#04D361"/>
<stop offset="1" stop-color="#04D361" stop-opacity="0"/>
</linearGradient>
<linearGradient id="paint65_linear" x1="556.361" y1="316.44" x2="556.361" y2="131.3" gradientUnits="userSpaceOnUse">
<stop stop-color="#04D361"/>
<stop offset="1" stop-color="#04D361" stop-opacity="0"/>
</linearGradient>
<linearGradient id="paint66_linear" x1="556.36" y1="316.44" x2="556.36" y2="131.3" gradientUnits="userSpaceOnUse">
<stop stop-color="#04D361"/>
<stop offset="1" stop-color="#04D361" stop-opacity="0"/>
</linearGradient>
<linearGradient id="paint67_linear" x1="556.361" y1="316.439" x2="556.361" y2="131.299" gradientUnits="userSpaceOnUse">
<stop stop-color="#04D361"/>
<stop offset="1" stop-color="#04D361" stop-opacity="0"/>
</linearGradient>
<linearGradient id="paint68_linear" x1="556.361" y1="316.44" x2="556.361" y2="131.299" gradientUnits="userSpaceOnUse">
<stop stop-color="#04D361"/>
<stop offset="1" stop-color="#04D361" stop-opacity="0"/>
</linearGradient>
<linearGradient id="paint69_linear" x1="556.361" y1="316.44" x2="556.361" y2="131.3" gradientUnits="userSpaceOnUse">
<stop stop-color="#04D361"/>
<stop offset="1" stop-color="#04D361" stop-opacity="0"/>
</linearGradient>
<linearGradient id="paint70_linear" x1="556.361" y1="316.44" x2="556.361" y2="131.3" gradientUnits="userSpaceOnUse">
<stop stop-color="#04D361"/>
<stop offset="1" stop-color="#04D361" stop-opacity="0"/>
</linearGradient>
<linearGradient id="paint71_linear" x1="556.361" y1="316.44" x2="556.361" y2="131.3" gradientUnits="userSpaceOnUse">
<stop stop-color="#04D361"/>
<stop offset="1" stop-color="#04D361" stop-opacity="0"/>
</linearGradient>
<linearGradient id="paint72_linear" x1="556.361" y1="316.439" x2="556.361" y2="131.299" gradientUnits="userSpaceOnUse">
<stop stop-color="#04D361"/>
<stop offset="1" stop-color="#04D361" stop-opacity="0"/>
</linearGradient>
<linearGradient id="paint73_linear" x1="556.361" y1="316.44" x2="556.361" y2="131.3" gradientUnits="userSpaceOnUse">
<stop stop-color="#04D361"/>
<stop offset="1" stop-color="#04D361" stop-opacity="0"/>
</linearGradient>
<linearGradient id="paint74_linear" x1="556.361" y1="316.44" x2="556.361" y2="131.3" gradientUnits="userSpaceOnUse">
<stop stop-color="#04D361"/>
<stop offset="1" stop-color="#04D361" stop-opacity="0"/>
</linearGradient>
<linearGradient id="paint75_linear" x1="556.361" y1="316.44" x2="556.361" y2="131.3" gradientUnits="userSpaceOnUse">
<stop stop-color="#04D361"/>
<stop offset="1" stop-color="#04D361" stop-opacity="0"/>
</linearGradient>
<linearGradient id="paint76_linear" x1="375.58" y1="98.1244" x2="375.58" y2="-0.000260795" gradientUnits="userSpaceOnUse">
<stop stop-color="#04D361"/>
<stop offset="1" stop-color="#04D361" stop-opacity="0"/>
</linearGradient>
<linearGradient id="paint77_linear" x1="375.58" y1="98.1245" x2="375.58" y2="-0.000184688" gradientUnits="userSpaceOnUse">
<stop stop-color="#04D361"/>
<stop offset="1" stop-color="#04D361" stop-opacity="0"/>
</linearGradient>
<linearGradient id="paint78_linear" x1="375.58" y1="98.1249" x2="375.58" y2="0.000283757" gradientUnits="userSpaceOnUse">
<stop stop-color="#04D361"/>
<stop offset="1" stop-color="#04D361" stop-opacity="0"/>
</linearGradient>
<linearGradient id="paint79_linear" x1="375.58" y1="98.1247" x2="375.58" y2="-4.02075e-05" gradientUnits="userSpaceOnUse">
<stop stop-color="#04D361"/>
<stop offset="1" stop-color="#04D361" stop-opacity="0"/>
</linearGradient>
<linearGradient id="paint80_linear" x1="375.58" y1="98.1251" x2="375.58" y2="0.000395242" gradientUnits="userSpaceOnUse">
<stop stop-color="#04D361"/>
<stop offset="1" stop-color="#04D361" stop-opacity="0"/>
</linearGradient>
<linearGradient id="paint81_linear" x1="375.58" y1="98.1247" x2="375.58" y2="0" gradientUnits="userSpaceOnUse">
<stop stop-color="#04D361"/>
<stop offset="1" stop-color="#04D361" stop-opacity="0"/>
</linearGradient>
<linearGradient id="paint82_linear" x1="375.58" y1="98.1244" x2="375.58" y2="-0.000260795" gradientUnits="userSpaceOnUse">
<stop stop-color="#04D361"/>
<stop offset="1" stop-color="#04D361" stop-opacity="0"/>
</linearGradient>
<linearGradient id="paint83_linear" x1="375.58" y1="98.1249" x2="375.58" y2="0.000180046" gradientUnits="userSpaceOnUse">
<stop stop-color="#04D361"/>
<stop offset="1" stop-color="#04D361" stop-opacity="0"/>
</linearGradient>
<linearGradient id="paint84_linear" x1="375.58" y1="98.1249" x2="375.58" y2="0.000283757" gradientUnits="userSpaceOnUse">
<stop stop-color="#04D361"/>
<stop offset="1" stop-color="#04D361" stop-opacity="0"/>
</linearGradient>
<linearGradient id="paint85_linear" x1="375.58" y1="98.1245" x2="375.58" y2="-0.000184688" gradientUnits="userSpaceOnUse">
<stop stop-color="#04D361"/>
<stop offset="1" stop-color="#04D361" stop-opacity="0"/>
</linearGradient>
<linearGradient id="paint86_linear" x1="375.58" y1="98.1249" x2="375.58" y2="0.000283757" gradientUnits="userSpaceOnUse">
<stop stop-color="#04D361"/>
<stop offset="1" stop-color="#04D361" stop-opacity="0"/>
</linearGradient>
<linearGradient id="paint87_linear" x1="375.58" y1="98.1247" x2="375.58" y2="-4.02075e-05" gradientUnits="userSpaceOnUse">
<stop stop-color="#04D361"/>
<stop offset="1" stop-color="#04D361" stop-opacity="0"/>
</linearGradient>
</defs>
</svg>
