<svg width="398" height="228" viewBox="0 0 398 228" fill="none" xmlns="http://www.w3.org/2000/svg">
<path d="M104.261 169.662L110.834 175.756L96.868 187.943L90.8435 182.357C71.1282 164.077 60.1752 139.704 60.1752 113.807C60.1752 87.911 71.1282 63.5377 90.8435 45.2572L96.868 39.6719L110.834 51.8585L104.261 57.9523C71.1282 88.6728 71.1282 138.689 104.261 169.662Z" fill="#04D361"/>
<path d="M64.0079 213.585L65.6517 215.109L51.686 227.295L50.5911 226.279C-16.2231 164.331 -16.2231 63.5375 50.5911 1.58919L51.686 0.573242L65.6517 12.7599L64.0079 14.2834C4.5881 68.8687 4.5881 158.491 64.0079 213.585ZM137.668 113.553L159.301 133.864L145.335 146.051L110.559 113.553L145.335 81.3095L159.301 93.4962L137.668 113.553ZM294.024 169.662L287.452 175.756L301.417 187.943L307.442 182.356C327.157 164.077 338.11 139.703 338.11 113.807C338.11 87.9109 327.157 63.5375 307.442 45.2571L301.417 39.6717L287.452 51.8584L294.024 57.9522C327.431 88.6726 327.431 138.688 294.024 169.662Z" fill="#04D361"/>
<path d="M334.275 213.585L332.632 215.108L346.598 227.294L347.693 226.279C414.507 164.331 414.507 63.5375 347.693 1.58919L346.598 0.573242L332.632 12.7599L334.275 14.2834C393.696 68.8687 393.696 158.491 334.275 213.585ZM260.617 113.553L238.985 133.864L252.949 146.051L287.725 113.553L252.949 81.3096L238.985 93.4962L260.617 113.553ZM222.828 64.8068L193.529 162.553H173.813L203.113 64.8068H222.828Z" fill="#04D361"/>
</svg>
