<svg width="65" height="47" viewBox="0 0 65 47" fill="none" xmlns="http://www.w3.org/2000/svg">
<path d="M64.8296 17.4287C63.5981 27.6396 60.6168 36.9329 55.8512 46.3146C55.6458 46.7191 55.1912 46.9312 54.7478 46.8352C46.5779 45.0655 41.0765 44.5742 32 44.5263C21.5419 44.7816 16.9735 45.276 8.70201 46.8643C8.28271 46.9448 7.85536 46.7514 7.64773 46.3784C2.97108 37.9753 1.59991 29.3351 0.148622 17.1582C0.0722386 16.5173 0.615232 15.9735 1.24823 16.0995C6.19706 17.0848 11.1389 20.4272 17.538 24.1216C18.0354 24.4088 18.6726 24.2143 18.9277 23.6997C23.8697 13.7286 26.3165 8.39809 31.289 1.1633C31.68 0.594356 32.5174 0.591367 32.904 1.16332C36.6561 6.71404 39.4851 12.7602 45.2646 23.7451C45.525 24.24 46.1431 24.4268 46.6331 24.1574C52.0024 21.2058 56.6093 18.7556 63.5429 16.3874C64.2269 16.1538 64.9162 16.7111 64.8296 17.4287Z" fill="url(#paint0_linear)"/>
<defs>
<linearGradient id="paint0_linear" x1="32.0988" y1="0.795113" x2="32.4927" y2="44.5264" gradientUnits="userSpaceOnUse">
<stop stop-color="#FE7805"/>
<stop offset="1" stop-color="#FF9802"/>
</linearGradient>
</defs>
</svg>
