<svg width="316" height="273" viewBox="0 0 316 273" fill="none" xmlns="http://www.w3.org/2000/svg">
<g clip-path="url(#clip0)">
<path d="M172.485 76.0275C188.554 76.0275 201.582 62.9867 201.582 46.9C201.582 30.8133 188.554 17.7725 172.485 17.7725C156.415 17.7725 143.388 30.8133 143.388 46.9C143.388 62.9867 156.415 76.0275 172.485 76.0275Z" fill="#A0616A"/>
<path d="M150.768 61.4639C150.768 61.4639 156.25 102.833 147.816 107.477C139.382 112.12 197.997 112.543 197.997 112.543C197.997 112.543 184.925 76.6608 190.829 65.6852L150.768 61.4639Z" fill="#A0616A"/>
<path d="M240.798 112.751L235.924 134.972L225.616 181.985L225.308 184.56L221.75 214.366L219.384 234.167L217.798 247.468C208.151 252.431 201.159 255.858 201.159 255.858C201.159 255.858 200.558 252.839 199.589 248.977C192.818 251.009 180.291 254.38 169.675 255.054C173.541 259.367 175.318 263.419 172.908 266.41C165.635 275.425 135.611 256.539 125.11 249.496C124.865 251.183 124.773 252.887 124.833 254.59L116.797 248.403L117.592 234.167L118.933 210.081L120.619 179.874C120.087 178.581 119.642 177.253 119.285 175.901C116.824 167.14 113.837 149.644 111.546 134.972C109.702 123.165 108.317 113.187 108.024 111.064C107.985 110.787 107.965 110.644 107.965 110.644L152.451 90.9658C155.613 98.3055 170.376 100.512 170.376 100.512C182.606 99.6681 192.193 93.2117 192.193 93.2117L240.798 112.751Z" fill="#D0CDE1"/>
<path d="M204.534 247.418C204.534 247.418 202.651 248.063 199.588 248.978C192.818 251.01 180.291 254.381 169.675 255.054C160.535 255.64 152.811 254.23 151.399 248.261C150.793 245.694 151.652 243.583 153.524 241.848C159.111 236.663 173.703 234.806 185.277 234.168C188.545 233.99 191.568 233.907 194.085 233.875C198.358 233.819 201.159 233.907 201.159 233.907L201.227 234.168L204.534 247.418Z" fill="#A0616A"/>
<path d="M148.279 19.3481L142.839 17.1678C142.839 17.1678 154.214 4.63097 170.041 5.72118L165.589 0.815415C165.589 0.815415 176.47 -3.54517 186.362 7.90144C191.561 13.9187 197.578 20.9916 201.328 28.9592H207.154L204.723 34.3191L213.234 39.6791L204.498 38.7163C205.019 41.6515 205.099 44.648 204.735 47.6067C204.36 50.5664 202.852 53.2646 200.527 55.1318V55.1318C200.527 55.1318 193.78 41.1512 193.78 38.9709V44.4217C193.78 44.4217 188.34 39.516 188.34 36.2456L185.372 40.0611L183.889 34.0652L165.589 40.0611L168.557 35.1554L157.182 36.7906L161.633 30.7947C161.633 30.7947 148.774 37.8808 148.279 43.8767C147.785 49.8725 144.021 55.5539 144.021 55.5539C144.021 55.5539 133.936 27.5243 148.279 19.3481Z" fill="#2F2E41"/>
<path d="M272.425 214.909C269.461 218.125 262.118 222.969 253.215 228.214C249.903 230.162 246.377 232.171 242.781 234.167C234.198 238.932 225.213 243.654 217.798 247.468C208.151 252.431 201.159 255.857 201.159 255.857C201.159 255.857 200.558 252.839 199.588 248.977C198.291 243.808 196.336 237.126 194.298 234.167C194.227 234.064 194.156 233.969 194.085 233.874C193.491 233.094 192.894 232.638 192.304 232.638L221.75 214.366L234.475 206.468L225.308 184.56L213.809 157.078L220.749 134.972L227.725 112.751H240.798C240.798 112.751 245.127 122.21 250.663 135.4C251.49 137.372 252.344 139.428 253.215 141.551C264.602 169.278 278.799 207.997 272.425 214.909Z" fill="#D0CDE1"/>
<path d="M172.908 266.411C165.635 275.426 135.611 256.54 125.11 249.497C122.823 247.965 121.462 246.994 121.462 246.994L131.069 234.168L134.112 230.108C134.112 230.108 136.834 231.554 140.858 233.907C141.004 233.994 141.151 234.081 141.301 234.168C144.771 236.208 149.128 238.874 153.524 241.849C159.589 245.956 165.722 250.642 169.675 255.055C173.541 259.368 175.318 263.42 172.908 266.411Z" fill="#A0616A"/>
<path d="M140.858 233.906C139.784 233.902 138.712 233.99 137.653 234.168C128.556 235.732 125.874 243.975 125.11 249.497C124.865 251.183 124.773 252.888 124.833 254.591L116.797 248.404L113.869 246.15C106.822 243.69 100.542 239.321 95.0977 234.168C90.3744 229.618 86.1376 224.588 82.4557 219.16C78.7885 213.809 75.5193 208.196 72.6746 202.365C71.8808 200.738 71.4541 198.956 71.4247 197.146C71.3953 195.335 71.7639 193.54 72.5044 191.888L82.4557 169.687L97.0009 137.239C97.1077 136.466 97.2251 135.711 97.353 134.973C100.238 118.416 107.965 111.064 107.965 111.064H113.869L117.818 134.973L122.724 164.676L119.286 175.902L111.34 201.826L118.933 210.081L140.858 233.906Z" fill="#D0CDE1"/>
<path d="M147.539 164.7L152.586 170.594C154.461 170.237 156.419 169.816 158.436 169.344L156.987 164.7L160.531 168.84C181.896 163.579 208.379 153.352 208.379 153.352C208.379 153.352 179.788 155.45 158.441 150.781C148.996 148.716 139.278 153.403 135.402 162.269C133.149 167.423 133.503 171.888 141.493 171.888C144.193 171.841 146.885 171.588 149.546 171.129L147.539 164.7Z" fill="#9243D6"/>
<path d="M262.593 261.577V263.982C262.594 264.642 262.472 265.296 262.233 265.911C262.126 266.185 261.998 266.45 261.849 266.703C261.377 267.495 260.708 268.151 259.907 268.607C259.106 269.062 258.2 269.302 257.279 269.301H80.5882C79.6668 269.302 78.7611 269.062 77.96 268.607C77.1588 268.151 76.4896 267.495 76.0181 266.703C75.8689 266.45 75.7405 266.185 75.6343 265.911C75.395 265.296 75.2728 264.642 75.2742 263.982V261.577C75.274 260.879 75.4113 260.187 75.6783 259.541C75.9453 258.896 76.3367 258.309 76.8302 257.815C77.3237 257.321 77.9096 256.93 78.5544 256.662C79.1992 256.395 79.8903 256.258 80.5882 256.258H90.7729V255.137C90.7729 255.108 90.7786 255.079 90.7897 255.052C90.8008 255.025 90.8171 255.001 90.8377 254.98C90.8583 254.959 90.8828 254.943 90.9097 254.932C90.9366 254.921 90.9654 254.915 90.9945 254.915H96.3085C96.3376 254.915 96.3664 254.921 96.3933 254.932C96.4202 254.943 96.4447 254.959 96.4653 254.98C96.4859 255.001 96.5022 255.025 96.5133 255.052C96.5244 255.079 96.5301 255.108 96.5301 255.137V256.258H99.8498V255.137C99.8497 255.108 99.8554 255.079 99.8666 255.052C99.8777 255.025 99.894 255.001 99.9146 254.98C99.9352 254.959 99.9596 254.943 99.9865 254.932C100.013 254.921 100.042 254.915 100.071 254.915H105.385C105.414 254.915 105.443 254.921 105.47 254.932C105.497 254.943 105.522 254.959 105.542 254.98C105.563 255.001 105.579 255.025 105.59 255.052C105.601 255.079 105.607 255.108 105.607 255.137V256.258H108.931V255.137C108.931 255.108 108.936 255.079 108.947 255.052C108.959 255.025 108.975 255.001 108.995 254.98C109.016 254.959 109.04 254.943 109.067 254.932C109.094 254.921 109.123 254.915 109.152 254.915H114.466C114.495 254.915 114.524 254.921 114.551 254.932C114.578 254.943 114.602 254.959 114.623 254.98C114.644 255.001 114.66 255.025 114.671 255.052C114.682 255.079 114.688 255.108 114.688 255.137V256.258H118.008V255.137C118.007 255.108 118.013 255.079 118.024 255.052C118.035 255.025 118.052 255.001 118.072 254.98C118.093 254.959 118.117 254.943 118.144 254.932C118.171 254.921 118.2 254.915 118.229 254.915H123.543C123.572 254.915 123.601 254.921 123.628 254.932C123.655 254.943 123.679 254.959 123.7 254.98C123.72 255.001 123.737 255.025 123.748 255.052C123.759 255.079 123.765 255.108 123.765 255.137V256.258H127.084V255.137C127.084 255.108 127.09 255.079 127.101 255.052C127.112 255.025 127.129 255.001 127.149 254.98C127.17 254.959 127.194 254.943 127.221 254.932C127.248 254.921 127.277 254.915 127.306 254.915H132.62C132.649 254.915 132.678 254.921 132.705 254.932C132.732 254.943 132.756 254.959 132.777 254.98C132.797 255.001 132.814 255.025 132.825 255.052C132.836 255.079 132.842 255.108 132.842 255.137V256.258H136.165V255.137C136.165 255.108 136.171 255.079 136.182 255.052C136.193 255.025 136.209 255.001 136.23 254.98C136.251 254.959 136.275 254.943 136.302 254.932C136.329 254.921 136.358 254.915 136.387 254.915H141.701C141.73 254.915 141.759 254.921 141.786 254.932C141.813 254.943 141.837 254.959 141.858 254.98C141.878 255.001 141.894 255.025 141.906 255.052C141.917 255.079 141.922 255.108 141.922 255.137V256.258H145.242V255.137C145.242 255.108 145.248 255.079 145.259 255.052C145.27 255.025 145.286 255.001 145.307 254.98C145.327 254.959 145.352 254.943 145.379 254.932C145.406 254.921 145.435 254.915 145.464 254.915H187.089C187.118 254.915 187.147 254.921 187.174 254.932C187.201 254.943 187.225 254.959 187.246 254.98C187.266 255.001 187.283 255.025 187.294 255.052C187.305 255.079 187.311 255.108 187.311 255.137V256.258H190.634V255.137C190.634 255.108 190.64 255.079 190.651 255.052C190.662 255.025 190.679 255.001 190.699 254.98C190.72 254.959 190.744 254.943 190.771 254.932C190.798 254.921 190.827 254.915 190.856 254.915H196.17C196.229 254.916 196.285 254.939 196.326 254.981C196.367 255.022 196.391 255.078 196.392 255.137V256.258H199.711V255.137C199.711 255.108 199.717 255.079 199.728 255.052C199.739 255.025 199.755 255.001 199.776 254.98C199.797 254.959 199.821 254.943 199.848 254.932C199.875 254.921 199.904 254.915 199.933 254.915H205.247C205.276 254.915 205.305 254.921 205.332 254.932C205.359 254.943 205.383 254.959 205.404 254.98C205.424 255 205.441 255.025 205.452 255.052C205.463 255.079 205.468 255.108 205.468 255.137V256.258H208.788V255.137C208.788 255.108 208.794 255.079 208.805 255.052C208.816 255.025 208.832 255.001 208.853 254.98C208.874 254.959 208.898 254.943 208.925 254.932C208.952 254.921 208.981 254.915 209.01 254.915H214.324C214.353 254.915 214.382 254.921 214.409 254.932C214.435 254.943 214.46 254.959 214.481 254.98C214.501 255.001 214.517 255.025 214.529 255.052C214.54 255.079 214.545 255.108 214.545 255.137V256.258H217.869V255.137C217.869 255.108 217.875 255.079 217.886 255.052C217.897 255.025 217.913 255.001 217.934 254.98C217.954 254.959 217.979 254.943 218.006 254.932C218.033 254.921 218.061 254.915 218.091 254.915H223.405C223.463 254.916 223.518 254.939 223.559 254.981C223.6 255.023 223.623 255.079 223.622 255.137V256.258H226.946V255.137C226.946 255.108 226.952 255.079 226.963 255.052C226.974 255.025 226.99 255.001 227.011 254.98C227.031 254.959 227.056 254.943 227.083 254.932C227.11 254.921 227.138 254.915 227.167 254.915H232.481C232.511 254.915 232.539 254.921 232.566 254.932C232.593 254.943 232.618 254.959 232.638 254.98C232.659 255.001 232.675 255.025 232.686 255.052C232.697 255.079 232.703 255.108 232.703 255.137V256.258H236.023V255.137C236.023 255.108 236.028 255.079 236.04 255.052C236.051 255.025 236.067 255.001 236.088 254.98C236.108 254.959 236.133 254.943 236.159 254.932C236.186 254.921 236.215 254.915 236.244 254.915H241.558C241.587 254.915 241.616 254.921 241.643 254.932C241.67 254.943 241.695 254.959 241.715 254.98C241.736 255.001 241.752 255.025 241.763 255.052C241.774 255.079 241.78 255.108 241.78 255.137V256.258H257.279C257.977 256.258 258.668 256.395 259.312 256.662C259.957 256.93 260.543 257.321 261.037 257.815C261.53 258.309 261.921 258.896 262.188 259.541C262.455 260.187 262.593 260.879 262.593 261.577V261.577Z" fill="#3F3D56"/>
<path d="M313.971 265.911H23.9387V266.703H313.971V265.911Z" fill="#3F3D56"/>
<path d="M248.366 160.324H182.508V158.965H152.645V160.324H86.5156C85.3341 160.324 84.201 160.794 83.3656 161.63C82.5301 162.466 82.0608 163.6 82.0608 164.783V255.059C82.0608 256.241 82.5301 257.376 83.3656 258.212C84.201 259.048 85.3341 259.518 86.5156 259.518H248.366C249.547 259.518 250.68 259.048 251.516 258.212C252.351 257.376 252.82 256.241 252.82 255.059V164.783C252.82 164.198 252.705 163.618 252.481 163.077C252.257 162.536 251.929 162.044 251.516 161.63C251.102 161.216 250.611 160.887 250.07 160.663C249.53 160.439 248.951 160.324 248.366 160.324V160.324Z" fill="#3F3D56"/>
<path d="M167.57 201.743C173.033 201.743 177.462 197.31 177.462 191.841C177.462 186.372 173.033 181.938 167.57 181.938C162.107 181.938 157.678 186.372 157.678 191.841C157.678 197.31 162.107 201.743 167.57 201.743Z" stroke="#D0CDE1" stroke-width="2" stroke-miterlimit="10"/>
<path d="M164.405 205.308C169.868 205.308 174.297 200.874 174.297 195.405C174.297 189.936 169.868 185.503 164.405 185.503C158.941 185.503 154.513 189.936 154.513 195.405C154.513 200.874 158.941 205.308 164.405 205.308Z" fill="#D0CDE1"/>
<path d="M42.9098 261.909H31.8308V273H42.9098V261.909Z" fill="#D0CDE1"/>
<path d="M36.1848 253.195V266.663H49.6379V253.195H36.1848ZM49.0523 266.076H36.7665V253.782H49.0523V266.076Z" fill="#3F3D56"/>
<path d="M299.31 261.909H288.231V273H299.31V261.909Z" fill="#D0CDE1"/>
<path d="M292.585 253.195V266.663H306.038V253.195H292.585ZM305.452 266.076H293.167V253.782H305.452V266.076Z" fill="#3F3D56"/>
<path d="M59.5867 237.561C59.9559 250.217 52.5693 254.855 43.2993 255.126C43.084 255.132 42.8696 255.136 42.6562 255.137C42.2264 255.14 41.8006 255.133 41.3791 255.116C32.9953 254.767 26.359 250.312 26.0157 238.543C25.6604 226.363 40.7622 210.537 41.8953 209.367L41.8973 209.366C41.9403 209.321 41.9624 209.299 41.9624 209.299C41.9624 209.299 59.2176 224.907 59.5867 237.561Z" fill="#D0CDE1"/>
<path d="M42.6319 253.208L48.5206 244.441L42.644 254.151L42.6563 255.137C42.2264 255.14 41.8007 255.133 41.3791 255.116L41.6712 242.436L41.6632 242.338L41.674 242.319L41.7019 241.121L35.2532 231.748L41.6943 240.224L41.7172 240.477L41.9378 230.897L36.3678 221.18L41.9536 229.214L41.8953 209.367L41.8954 209.301L41.8973 209.366L42.2671 225.008L47.3434 218.654L42.2837 226.356L42.3945 234.925L47.0658 226.562L42.4117 236.185L42.4733 240.95L49.2667 229.3L42.494 242.612L42.6319 253.208Z" fill="#3F3D56"/>
<path d="M315.987 237.561C316.356 250.217 308.969 254.855 299.699 255.126C299.484 255.132 299.27 255.136 299.056 255.137C298.626 255.14 298.201 255.133 297.779 255.116C289.395 254.767 282.759 250.312 282.416 238.543C282.061 226.363 297.162 210.537 298.295 209.367L298.297 209.366C298.34 209.321 298.363 209.299 298.363 209.299C298.363 209.299 315.618 224.907 315.987 237.561Z" fill="#D0CDE1"/>
<path d="M299.032 253.208L304.92 244.441L299.044 254.151L299.056 255.137C298.626 255.14 298.201 255.133 297.779 255.116L298.071 242.436L298.063 242.338L298.074 242.319L298.102 241.121L291.653 231.748L298.094 240.224L298.117 240.477L298.338 230.897L292.768 221.18L298.354 229.214L298.295 209.367L298.295 209.301L298.297 209.366L298.667 225.008L303.743 218.654L298.684 226.356L298.794 234.925L303.466 226.562L298.812 236.185L298.873 240.95L305.667 229.3L298.894 242.612L299.032 253.208Z" fill="#3F3D56"/>
<path d="M47.942 87.018L45.339 89.604L42.753 87L41.0179 88.724L43.603 91.327L41 93.913L42.723 95.648L45.327 93.063L47.912 95.666L49.6479 93.942L47.062 91.339L49.665 88.754L47.942 87.018Z" fill="#E6E6E6"/>
<path d="M289.942 52.018L287.339 54.604L284.753 52L283.018 53.724L285.603 56.327L283 58.913L284.723 60.648L287.327 58.063L289.912 60.666L291.648 58.942L289.062 56.339L291.665 53.754L289.942 52.018Z" fill="#E6E6E6"/>
</g>
<defs>
<clipPath id="clip0">
<rect width="316" height="273" fill="white"/>
</clipPath>
</defs>
</svg>
